<svg width="16" height="16" viewBox="0 0 16 16" fill="none" xmlns="http://www.w3.org/2000/svg">
<g id="GNBAccountIcon">
<path id="Vector" d="M7.99999 12.3333C10.3932 12.3333 12.3333 10.3932 12.3333 7.99996C12.3333 5.60673 10.3932 3.66663 7.99999 3.66663C5.60676 3.66663 3.66666 5.60673 3.66666 7.99996C3.66666 10.3932 5.60676 12.3333 7.99999 12.3333Z" stroke="white" stroke-linecap="round" stroke-linejoin="round"/>
<path id="Vector_2" d="M12.76 12.76L12.6733 12.6734M12.6733 3.32671L12.76 3.24004L12.6733 3.32671ZM3.24001 12.76L3.32668 12.6734L3.24001 12.76ZM8.00001 1.38671V1.33337V1.38671ZM8.00001 14.6667V14.6134V14.6667ZM1.38668 8.00004H1.33334H1.38668ZM14.6667 8.00004H14.6133H14.6667ZM3.32668 3.32671L3.24001 3.24004L3.32668 3.32671Z" stroke="white" stroke-width="1.5" stroke-linecap="round" stroke-linejoin="round"/>
</g>
</svg>
