<svg width="16" height="16" viewBox="0 0 16 16" fill="none" xmlns="http://www.w3.org/2000/svg">
<path d="M14.6667 7.40016V4.60016C14.6667 2.26683 13.7333 1.3335 11.4 1.3335H8.60001C6.26668 1.3335 5.33334 2.26683 5.33334 4.60016V5.3335H7.40001C9.73334 5.3335 10.6667 6.26683 10.6667 8.60016V10.6668H11.4C13.7333 10.6668 14.6667 9.7335 14.6667 7.40016Z" stroke="#0070ED" stroke-linecap="round" stroke-linejoin="round"/>
<path d="M10.6667 11.4002V8.60016C10.6667 6.26683 9.73334 5.3335 7.40001 5.3335H4.60001C2.26668 5.3335 1.33334 6.26683 1.33334 8.60016V11.4002C1.33334 13.7335 2.26668 14.6668 4.60001 14.6668H7.40001C9.73334 14.6668 10.6667 13.7335 10.6667 11.4002Z" stroke="#0070ED" stroke-linecap="round" stroke-linejoin="round"/>
<path d="M4.05338 10.0002L5.35338 11.3002L7.94671 8.7002" stroke="#0070ED" stroke-linecap="round" stroke-linejoin="round"/>
</svg>
