<svg width="20" height="20" viewBox="0 0 20 20" fill="none" xmlns="http://www.w3.org/2000/svg">
<path d="M17.1428 5.71486H2.85704C2.60203 5.71485 2.35168 5.78311 2.13196 5.91254C1.91224 6.04197 1.73117 6.22786 1.60755 6.4509C1.48393 6.67394 1.42227 6.926 1.42896 7.18092C1.43565 7.43584 1.51046 7.68432 1.64561 7.90057L8.78847 14.052C8.91659 14.2587 9.09537 14.4293 9.30786 14.5476C9.52036 14.6659 9.75955 14.728 10.0028 14.728C10.246 14.728 10.4851 14.6659 10.6976 14.5476C10.9101 14.4293 11.0889 14.2587 11.217 14.052L18.3599 7.90057C18.4953 7.68391 18.5701 7.4349 18.5766 7.17949C18.583 6.92408 18.5209 6.67161 18.3966 6.44839C18.2723 6.22518 18.0904 6.03938 17.8699 5.91036C17.6493 5.78135 17.3982 5.71383 17.1428 5.71486Z" fill="#1C1C1C"/>
</svg>
