<svg width="15" height="15" viewBox="0 0 15 15" fill="none" xmlns="http://www.w3.org/2000/svg">
<path id="&#237;&#140;&#168;&#236;&#138;&#164; 31" d="M14.5 7.49763C14.4995 6.21192 14.1449 4.9512 13.4751 3.85375C12.8052 2.7563 11.8461 1.86451 10.7029 1.27622C9.55969 0.687937 8.27653 0.425884 6.99418 0.518791C5.71183 0.611698 4.47984 1.05598 3.43336 1.80291C2.38687 2.54985 1.5663 3.57057 1.06169 4.75311C0.557068 5.93565 0.387886 7.23434 0.572698 8.50669C0.75751 9.77905 1.28918 10.9759 2.10938 11.966C2.92958 12.9561 4.00662 13.7012 5.22236 14.1196C5.32066 14.069 5.40497 13.995 5.46782 13.9041C5.53068 13.8131 5.57016 13.7081 5.58273 13.5983C5.58273 13.2133 5.57425 12.2231 5.57425 12.2231C5.33003 12.259 5.08343 12.2762 4.83659 12.2747C4.48804 12.2967 4.14199 12.2029 3.85222 12.008C3.56246 11.813 3.34521 11.5278 3.23424 11.1967C3.08156 10.808 2.80498 10.4805 2.44732 10.265C2.26637 10.148 2.22478 10.0101 2.43422 9.97162C3.40133 9.79067 3.64851 11.0619 4.29453 11.2652C4.74106 11.4043 5.22401 11.3657 5.64277 11.1574C5.70262 10.7958 5.90231 10.4722 6.19872 10.2565C4.55555 10.1025 3.58074 9.53195 3.07717 8.61951L3.02326 8.51788L2.89622 8.22835L2.85849 8.12442C2.69508 7.61219 2.61704 7.07655 2.62749 6.53899C2.61174 6.16929 2.67193 5.80029 2.80437 5.45477C2.9368 5.10925 3.13866 4.79454 3.39749 4.53009C3.18604 3.86586 3.22941 3.14672 3.51915 2.51271C3.51915 2.51271 4.23061 2.36565 5.57425 3.32275C6.74784 3.00932 7.98002 2.9858 9.16471 3.25421C9.72835 2.88308 10.7609 2.3564 11.1767 2.50424C11.4546 3.08519 11.5073 3.74855 11.3246 4.36608C11.9122 4.99278 12.2281 5.82653 12.2031 6.68529C12.2014 7.17077 12.1409 7.65424 12.0229 8.12517L11.9629 8.33076C11.9629 8.33076 11.9282 8.42779 11.8905 8.52096L11.8458 8.62259C11.3584 9.68748 10.359 10.0856 8.74431 10.2504C9.2679 10.5784 9.41727 10.9895 9.41727 12.0983C9.41727 13.2071 9.40266 13.3604 9.40574 13.6168C9.42103 13.7228 9.46016 13.8239 9.52017 13.9126C9.58019 14.0013 9.65952 14.0752 9.75222 14.1288C11.1367 13.6572 12.3389 12.7643 13.1903 11.5751C14.0417 10.386 14.4997 8.96018 14.5 7.49763Z" fill="white"/>
</svg>
