<svg width="15" height="15" viewBox="0 0 15 15" fill="none" xmlns="http://www.w3.org/2000/svg">
<path id="&#237;&#140;&#168;&#236;&#138;&#164; 31" d="M14.5 7.49714C14.4995 6.21143 14.1449 4.95072 13.4751 3.85326C12.8052 2.75581 11.8461 1.86402 10.7029 1.27573C9.55969 0.687449 8.27653 0.425396 6.99418 0.518303C5.71183 0.61121 4.47984 1.05549 3.43336 1.80243C2.38687 2.54936 1.5663 3.57008 1.06169 4.75262C0.557068 5.93516 0.387886 7.23385 0.572698 8.5062C0.75751 9.77856 1.28918 10.9754 2.10938 11.9655C2.92958 12.9556 4.00662 13.7007 5.22236 14.1191C5.32066 14.0685 5.40497 13.9945 5.46782 13.9036C5.53068 13.8126 5.57016 13.7076 5.58273 13.5978C5.58273 13.2128 5.57425 12.2226 5.57425 12.2226C5.33003 12.2585 5.08343 12.2757 4.83659 12.2742C4.48804 12.2962 4.14199 12.2024 3.85222 12.0075C3.56246 11.8125 3.34521 11.5273 3.23424 11.1962C3.08156 10.8075 2.80498 10.4801 2.44732 10.2645C2.26637 10.1475 2.22478 10.0096 2.43422 9.97113C3.40133 9.79018 3.64851 11.0614 4.29453 11.2647C4.74106 11.4038 5.22401 11.3652 5.64277 11.1569C5.70262 10.7953 5.90231 10.4717 6.19872 10.256C4.55555 10.102 3.58074 9.53146 3.07717 8.61902L3.02326 8.51739L2.89622 8.22787L2.85849 8.12393C2.69508 7.6117 2.61704 7.07607 2.62749 6.5385C2.61174 6.16881 2.67193 5.7998 2.80437 5.45428C2.9368 5.10876 3.13866 4.79406 3.39749 4.5296C3.18604 3.86538 3.22941 3.14623 3.51915 2.51223C3.51915 2.51223 4.23061 2.36516 5.57425 3.32226C6.74784 3.00883 7.98002 2.98531 9.16471 3.25373C9.72835 2.88259 10.7609 2.35592 11.1767 2.50376C11.4546 3.0847 11.5073 3.74807 11.3246 4.36559C11.9122 4.99229 12.2281 5.82604 12.2031 6.6848C12.2014 7.17028 12.1409 7.65375 12.0229 8.12468L11.9629 8.33027C11.9629 8.33027 11.9282 8.4273 11.8905 8.52047L11.8458 8.6221C11.3584 9.687 10.359 10.0851 8.74431 10.2499C9.2679 10.5779 9.41727 10.9891 9.41727 12.0978C9.41727 13.2066 9.40266 13.3599 9.40574 13.6163C9.42103 13.7223 9.46016 13.8234 9.52017 13.9121C9.58019 14.0008 9.65952 14.0747 9.75222 14.1283C11.1367 13.6568 12.3389 12.7638 13.1903 11.5747C14.0417 10.3855 14.4997 8.95969 14.5 7.49714Z" fill="#07070C"/>
</svg>
