<svg width="32" height="29" viewBox="0 0 32 29" fill="none" xmlns="http://www.w3.org/2000/svg">
<g id="metamask_icon">
<g id="&#234;&#183;&#184;&#235;&#163;&#185; 5484">
<g id="Clip path group">
<mask id="mask0_999_13289" style="mask-type:luminance" maskUnits="userSpaceOnUse" x="3" y="5" width="25" height="23">
<g id="clip-path">
<path id="&#236;&#130;&#172;&#234;&#176;&#129;&#237;&#152;&#149; 75" d="M27.7981 5.87109H3.97607V27.1671H27.7981V5.87109Z" fill="white"/>
</g>
</mask>
<g mask="url(#mask0_999_13289)">
<g id="&#234;&#183;&#184;&#235;&#163;&#185; 5483">
<g id="Clip path group_2">
<mask id="mask1_999_13289" style="mask-type:luminance" maskUnits="userSpaceOnUse" x="10" y="24" width="6" height="4">
<g id="clip-path-2">
<path id="&#237;&#140;&#168;&#236;&#138;&#164; 90" fill-rule="evenodd" clip-rule="evenodd" d="M10.812 25.394L13.912 26.217V25.14L14.165 24.887H15.937V27.04H14.037L11.695 26.026L10.812 25.394Z" fill="white"/>
</g>
</mask>
<g mask="url(#mask1_999_13289)">
<g id="&#234;&#183;&#184;&#235;&#163;&#185; 5424">
<g id="Clip path group_3">
<mask id="mask2_999_13289" style="mask-type:luminance" maskUnits="userSpaceOnUse" x="-4" y="-6" width="39" height="45">
<g id="clip-path-3">
<path id="&#237;&#140;&#168;&#236;&#138;&#164; 89" d="M-3.06299 38.7169H34.566V-5.85913H-3.06299V38.7169Z" fill="white"/>
</g>
</mask>
<g mask="url(#mask2_999_13289)">
<g id="&#234;&#183;&#184;&#235;&#163;&#185; 5423">
<path id="&#237;&#140;&#168;&#236;&#138;&#164; 88" d="M10.3601 24.4358H16.3901V27.4918H10.3601V24.4358Z" fill="#CDBDB1"/>
</g>
</g>
</g>
</g>
</g>
</g>
<g id="Clip path group_4">
<mask id="mask3_999_13289" style="mask-type:luminance" maskUnits="userSpaceOnUse" x="15" y="24" width="6" height="4">
<g id="clip-path-4">
<path id="&#237;&#140;&#168;&#236;&#138;&#164; 93" fill-rule="evenodd" clip-rule="evenodd" d="M20.9402 25.394L17.9022 26.217V25.14L17.6492 24.887H15.8762V27.04H17.7762L20.1182 26.026L20.9402 25.394Z" fill="white"/>
</g>
</mask>
<g mask="url(#mask3_999_13289)">
<g id="&#234;&#183;&#184;&#235;&#163;&#185; 5426">
<g id="Clip path group_5">
<mask id="mask4_999_13289" style="mask-type:luminance" maskUnits="userSpaceOnUse" x="-4" y="-6" width="39" height="45">
<g id="clip-path-3_2">
<path id="&#237;&#140;&#168;&#236;&#138;&#164; 89_2" d="M-3.06177 38.7169H34.5672V-5.85913H-3.06177V38.7169Z" fill="white"/>
</g>
</mask>
<g mask="url(#mask4_999_13289)">
<g id="&#234;&#183;&#184;&#235;&#163;&#185; 5425">
<path id="&#237;&#140;&#168;&#236;&#138;&#164; 91" d="M15.4263 27.4918H21.3923V24.4358H15.4263V27.4918Z" fill="#CDBDB1"/>
</g>
</g>
</g>
</g>
</g>
</g>
<g id="Clip path group_6">
<mask id="mask5_999_13289" style="mask-type:luminance" maskUnits="userSpaceOnUse" x="13" y="22" width="5" height="4">
<g id="clip-path-6">
<path id="&#237;&#140;&#168;&#236;&#138;&#164; 96" fill-rule="evenodd" clip-rule="evenodd" d="M14.1671 23.0499L13.9141 25.1399L14.2301 24.8869H17.5211L17.9011 25.1399L17.6481 23.0499L17.1421 22.7329L14.6101 22.7959L14.1671 23.0499Z" fill="white"/>
</g>
</mask>
<g mask="url(#mask5_999_13289)">
<g id="&#234;&#183;&#184;&#235;&#163;&#185; 5428">
<g id="Clip path group_7">
<mask id="mask6_999_13289" style="mask-type:luminance" maskUnits="userSpaceOnUse" x="-4" y="-6" width="39" height="45">
<g id="clip-path-3_3">
<path id="&#237;&#140;&#168;&#236;&#138;&#164; 89_3" d="M-3.06201 38.7159H34.567V-5.86011H-3.06201V38.7159Z" fill="white"/>
</g>
</mask>
<g mask="url(#mask6_999_13289)">
<g id="&#234;&#183;&#184;&#235;&#163;&#185; 5427">
<path id="&#237;&#140;&#168;&#236;&#138;&#164; 94" d="M13.4629 22.282H18.3539V25.591H13.4629V22.282Z" fill="#383838"/>
</g>
</g>
</g>
</g>
</g>
</g>
<g id="Clip path group_8">
<mask id="mask7_999_13289" style="mask-type:luminance" maskUnits="userSpaceOnUse" x="12" y="8" width="8" height="15">
<g id="clip-path-8">
<path id="&#237;&#140;&#168;&#236;&#138;&#164; 99" fill-rule="evenodd" clip-rule="evenodd" d="M12.4612 8.92603L13.9802 12.4731L14.6802 22.797H17.1482L17.9082 12.4731L19.3002 8.92603H12.4612Z" fill="white"/>
</g>
</mask>
<g mask="url(#mask7_999_13289)">
<g id="&#234;&#183;&#184;&#235;&#163;&#185; 5430">
<g id="Clip path group_9">
<mask id="mask8_999_13289" style="mask-type:luminance" maskUnits="userSpaceOnUse" x="-4" y="-6" width="39" height="45">
<g id="clip-path-3_4">
<path id="&#237;&#140;&#168;&#236;&#138;&#164; 89_4" d="M-3.06177 38.7161H34.5672V-5.85986H-3.06177V38.7161Z" fill="white"/>
</g>
</mask>
<g mask="url(#mask8_999_13289)">
<g id="&#234;&#183;&#184;&#235;&#163;&#185; 5429">
<path id="&#237;&#140;&#168;&#236;&#138;&#164; 97" d="M12.0112 8.4751H19.7492V23.2481H12.0112V8.4751Z" fill="#F79B34"/>
</g>
</g>
</g>
</g>
</g>
</g>
<g id="Clip path group_10">
<mask id="mask9_999_13289" style="mask-type:luminance" maskUnits="userSpaceOnUse" x="4" y="14" width="8" height="8">
<g id="clip-path-10">
<path id="&#237;&#140;&#168;&#236;&#138;&#164; 102" fill-rule="evenodd" clip-rule="evenodd" d="M5.81111 16.7159L4.03711 21.8469L8.46811 21.5929H11.3161V19.3769L11.1891 14.8169L10.5561 15.3239L5.81111 16.7159Z" fill="white"/>
</g>
</mask>
<g mask="url(#mask9_999_13289)">
<g id="&#234;&#183;&#184;&#235;&#163;&#185; 5432">
<g id="Clip path group_11">
<mask id="mask10_999_13289" style="mask-type:luminance" maskUnits="userSpaceOnUse" x="-4" y="-6" width="39" height="45">
<g id="clip-path-3_5">
<path id="&#237;&#140;&#168;&#236;&#138;&#164; 89_5" d="M-3.06299 38.7159H34.566V-5.86011H-3.06299V38.7159Z" fill="white"/>
</g>
</mask>
<g mask="url(#mask10_999_13289)">
<g id="&#234;&#183;&#184;&#235;&#163;&#185; 5431">
<path id="&#237;&#140;&#168;&#236;&#138;&#164; 100" d="M3.58594 14.365H11.7679V22.298H3.58594V14.365Z" fill="#F79D34"/>
</g>
</g>
</g>
</g>
</g>
</g>
<g id="Clip path group_12">
<mask id="mask11_999_13289" style="mask-type:luminance" maskUnits="userSpaceOnUse" x="9" y="17" width="6" height="4">
<g id="clip-path-12">
<path id="&#237;&#140;&#168;&#236;&#138;&#164; 105" fill-rule="evenodd" clip-rule="evenodd" d="M9.16602 17.2859L14.357 17.4129L13.787 20.0739L11.319 19.4399L9.16602 17.2859Z" fill="white"/>
</g>
</mask>
<g mask="url(#mask11_999_13289)">
<g id="&#234;&#183;&#184;&#235;&#163;&#185; 5434">
<g id="Clip path group_13">
<mask id="mask12_999_13289" style="mask-type:luminance" maskUnits="userSpaceOnUse" x="-4" y="-6" width="39" height="45">
<g id="clip-path-3_6">
<path id="&#237;&#140;&#168;&#236;&#138;&#164; 89_6" d="M-3.06299 38.7159H34.566V-5.86011H-3.06299V38.7159Z" fill="white"/>
</g>
</mask>
<g mask="url(#mask12_999_13289)">
<g id="&#234;&#183;&#184;&#235;&#163;&#185; 5433">
<path id="&#237;&#140;&#168;&#236;&#138;&#164; 103" d="M8.71411 16.835H14.8071V20.524H8.71411V16.835Z" fill="#D77B30"/>
</g>
</g>
</g>
</g>
</g>
</g>
<g id="Clip path group_14">
<mask id="mask13_999_13289" style="mask-type:luminance" maskUnits="userSpaceOnUse" x="9" y="17" width="3" height="5">
<g id="clip-path-14">
<path id="&#237;&#140;&#168;&#236;&#138;&#164; 108" fill-rule="evenodd" clip-rule="evenodd" d="M9.16602 17.3499L11.318 19.3768V21.4039L9.16602 17.3499Z" fill="white"/>
</g>
</mask>
<g mask="url(#mask13_999_13289)">
<g id="&#234;&#183;&#184;&#235;&#163;&#185; 5436">
<g id="Clip path group_15">
<mask id="mask14_999_13289" style="mask-type:luminance" maskUnits="userSpaceOnUse" x="-4" y="-6" width="39" height="45">
<g id="clip-path-3_7">
<path id="&#237;&#140;&#168;&#236;&#138;&#164; 89_7" d="M-3.06299 38.7169H34.566V-5.85913H-3.06299V38.7169Z" fill="white"/>
</g>
</mask>
<g mask="url(#mask14_999_13289)">
<g id="&#234;&#183;&#184;&#235;&#163;&#185; 5435">
<path id="&#237;&#140;&#168;&#236;&#138;&#164; 106" d="M8.71411 16.8999H11.7691V21.8559H8.71411V16.8999Z" fill="#EA8D3A"/>
</g>
</g>
</g>
</g>
</g>
</g>
<g id="Clip path group_16">
<mask id="mask15_999_13289" style="mask-type:luminance" maskUnits="userSpaceOnUse" x="11" y="19" width="4" height="5">
<g id="clip-path-16">
<path id="&#237;&#140;&#168;&#236;&#138;&#164; 111" fill-rule="evenodd" clip-rule="evenodd" d="M11.3191 19.4399L13.8491 20.0699L14.6721 22.7939L14.1021 23.1109L11.3191 21.4699V19.4399Z" fill="white"/>
</g>
</mask>
<g mask="url(#mask15_999_13289)">
<g id="&#234;&#183;&#184;&#235;&#163;&#185; 5438">
<g id="Clip path group_17">
<mask id="mask16_999_13289" style="mask-type:luminance" maskUnits="userSpaceOnUse" x="-4" y="-6" width="39" height="45">
<g id="clip-path-3_8">
<path id="&#237;&#140;&#168;&#236;&#138;&#164; 89_8" d="M-3.06201 38.7159H34.567V-5.86011H-3.06201V38.7159Z" fill="white"/>
</g>
</mask>
<g mask="url(#mask16_999_13289)">
<g id="&#234;&#183;&#184;&#235;&#163;&#185; 5437">
<path id="&#237;&#140;&#168;&#236;&#138;&#164; 109" d="M10.8679 18.9888H15.1249V23.5648H10.8679V18.9888Z" fill="#F79D34"/>
</g>
</g>
</g>
</g>
</g>
</g>
<g id="Clip path group_18">
<mask id="mask17_999_13289" style="mask-type:luminance" maskUnits="userSpaceOnUse" x="10" y="21" width="5" height="5">
<g id="clip-path-18">
<path id="&#237;&#140;&#168;&#236;&#138;&#164; 114" fill-rule="evenodd" clip-rule="evenodd" d="M11.318 21.467L10.812 25.394L14.167 23.051L11.318 21.467Z" fill="white"/>
</g>
</mask>
<g mask="url(#mask17_999_13289)">
<g id="&#234;&#183;&#184;&#235;&#163;&#185; 5440">
<g id="Clip path group_19">
<mask id="mask18_999_13289" style="mask-type:luminance" maskUnits="userSpaceOnUse" x="-4" y="-6" width="39" height="45">
<g id="clip-path-3_9">
<path id="&#237;&#140;&#168;&#236;&#138;&#164; 89_9" d="M-3.06299 38.7171H34.566V-5.85889H-3.06299V38.7171Z" fill="white"/>
</g>
</mask>
<g mask="url(#mask18_999_13289)">
<g id="&#234;&#183;&#184;&#235;&#163;&#185; 5439">
<path id="&#237;&#140;&#168;&#236;&#138;&#164; 112" d="M10.3601 21.0161H14.6171V25.8451H10.3601V21.0161Z" fill="#EA8E34"/>
</g>
</g>
</g>
</g>
</g>
</g>
<g id="Clip path group_20">
<mask id="mask19_999_13289" style="mask-type:luminance" maskUnits="userSpaceOnUse" x="13" y="17" width="2" height="6">
<g id="clip-path-20">
<path id="&#237;&#140;&#168;&#236;&#138;&#164; 117" fill-rule="evenodd" clip-rule="evenodd" d="M14.3571 17.4131L14.6741 22.7961L13.7241 20.0411L14.3571 17.4131Z" fill="white"/>
</g>
</mask>
<g mask="url(#mask19_999_13289)">
<g id="&#234;&#183;&#184;&#235;&#163;&#185; 5442">
<g id="Clip path group_21">
<mask id="mask20_999_13289" style="mask-type:luminance" maskUnits="userSpaceOnUse" x="-4" y="-6" width="39" height="45">
<g id="clip-path-3_10">
<path id="&#237;&#140;&#168;&#236;&#138;&#164; 89_10" d="M-3.06177 38.7161H34.5672V-5.85986H-3.06177V38.7161Z" fill="white"/>
</g>
</mask>
<g mask="url(#mask20_999_13289)">
<g id="&#234;&#183;&#184;&#235;&#163;&#185; 5441">
<path id="&#237;&#140;&#168;&#236;&#138;&#164; 115" d="M13.2732 16.9622H15.1252V23.2482H13.2732V16.9622Z" fill="#EA8D3A"/>
</g>
</g>
</g>
</g>
</g>
</g>
<g id="Clip path group_22">
<mask id="mask21_999_13289" style="mask-type:luminance" maskUnits="userSpaceOnUse" x="8" y="21" width="4" height="5">
<g id="clip-path-22">
<path id="&#237;&#140;&#168;&#236;&#138;&#164; 120" fill-rule="evenodd" clip-rule="evenodd" d="M8.40405 21.531L11.316 21.468L10.8091 25.395L8.40405 21.531Z" fill="white"/>
</g>
</mask>
<g mask="url(#mask21_999_13289)">
<g id="&#234;&#183;&#184;&#235;&#163;&#185; 5444">
<g id="Clip path group_23">
<mask id="mask22_999_13289" style="mask-type:luminance" maskUnits="userSpaceOnUse" x="-4" y="-6" width="39" height="45">
<g id="clip-path-3_11">
<path id="&#237;&#140;&#168;&#236;&#138;&#164; 89_11" d="M-3.06201 38.7171H34.567V-5.85889H-3.06201V38.7171Z" fill="white"/>
</g>
</mask>
<g mask="url(#mask22_999_13289)">
<g id="&#234;&#183;&#184;&#235;&#163;&#185; 5443">
<path id="&#237;&#140;&#168;&#236;&#138;&#164; 118" d="M7.95288 21.0161H11.7669V25.8451H7.95288V21.0161Z" fill="#D77B30"/>
</g>
</g>
</g>
</g>
</g>
</g>
<g id="Clip path group_24">
<mask id="mask23_999_13289" style="mask-type:luminance" maskUnits="userSpaceOnUse" x="4" y="21" width="7" height="7">
<g id="clip-path-24">
<path id="&#237;&#140;&#168;&#236;&#138;&#164; 123" fill-rule="evenodd" clip-rule="evenodd" d="M5.43109 27.104L10.8111 25.394L8.40609 21.53L4.03809 21.847L5.43109 27.104Z" fill="white"/>
</g>
</mask>
<g mask="url(#mask23_999_13289)">
<g id="&#234;&#183;&#184;&#235;&#163;&#185; 5446">
<g id="Clip path group_25">
<mask id="mask24_999_13289" style="mask-type:luminance" maskUnits="userSpaceOnUse" x="-4" y="-6" width="39" height="45">
<g id="clip-path-3_12">
<path id="&#237;&#140;&#168;&#236;&#138;&#164; 89_12" d="M-3.06299 38.7161H34.566V-5.85986H-3.06299V38.7161Z" fill="white"/>
</g>
</mask>
<g mask="url(#mask24_999_13289)">
<g id="&#234;&#183;&#184;&#235;&#163;&#185; 5445">
<path id="&#237;&#140;&#168;&#236;&#138;&#164; 121" d="M3.58594 21.0781H11.2609V27.5541H3.58594V21.0781Z" fill="#D77B30"/>
</g>
</g>
</g>
</g>
</g>
</g>
<g id="Clip path group_26">
<mask id="mask25_999_13289" style="mask-type:luminance" maskUnits="userSpaceOnUse" x="9" y="12" width="6" height="6">
<g id="clip-path-26">
<path id="&#237;&#140;&#168;&#236;&#138;&#164; 126" fill-rule="evenodd" clip-rule="evenodd" d="M13.977 12.4729L11.255 14.7529L9.16602 17.2859L14.357 17.4759L13.977 12.4729Z" fill="white"/>
</g>
</mask>
<g mask="url(#mask25_999_13289)">
<g id="&#234;&#183;&#184;&#235;&#163;&#185; 5448">
<g id="Clip path group_27">
<mask id="mask26_999_13289" style="mask-type:luminance" maskUnits="userSpaceOnUse" x="-4" y="-6" width="39" height="45">
<g id="clip-path-3_13">
<path id="&#237;&#140;&#168;&#236;&#138;&#164; 89_13" d="M-3.06299 38.7159H34.566V-5.86011H-3.06299V38.7159Z" fill="white"/>
</g>
</mask>
<g mask="url(#mask26_999_13289)">
<g id="&#234;&#183;&#184;&#235;&#163;&#185; 5447">
<path id="&#237;&#140;&#168;&#236;&#138;&#164; 124" d="M8.71411 12.021H14.8071V17.927H8.71411V12.021Z" fill="#E7811E"/>
</g>
</g>
</g>
</g>
</g>
</g>
<g id="Clip path group_28">
<mask id="mask27_999_13289" style="mask-type:luminance" maskUnits="userSpaceOnUse" x="10" y="23" width="5" height="4">
<g id="clip-path-28">
<path id="&#237;&#140;&#168;&#236;&#138;&#164; 129" fill-rule="evenodd" clip-rule="evenodd" d="M10.812 25.394L14.167 23.051L13.914 25.078V26.218L11.635 25.775L10.812 25.394Z" fill="white"/>
</g>
</mask>
<g mask="url(#mask27_999_13289)">
<g id="&#234;&#183;&#184;&#235;&#163;&#185; 5450">
<g id="Clip path group_29">
<mask id="mask28_999_13289" style="mask-type:luminance" maskUnits="userSpaceOnUse" x="-4" y="-6" width="39" height="45">
<g id="clip-path-3_14">
<path id="&#237;&#140;&#168;&#236;&#138;&#164; 89_14" d="M-3.06299 38.7161H34.566V-5.85986H-3.06299V38.7161Z" fill="white"/>
</g>
</mask>
<g mask="url(#mask28_999_13289)">
<g id="&#234;&#183;&#184;&#235;&#163;&#185; 5449">
<path id="&#237;&#140;&#168;&#236;&#138;&#164; 127" d="M10.3601 22.5981H14.6171V26.6671H10.3601V22.5981Z" fill="#DECDC3"/>
</g>
</g>
</g>
</g>
</g>
</g>
<g id="Clip path group_30">
<mask id="mask29_999_13289" style="mask-type:luminance" maskUnits="userSpaceOnUse" x="17" y="23" width="4" height="4">
<g id="clip-path-30">
<path id="&#237;&#140;&#168;&#236;&#138;&#164; 132" fill-rule="evenodd" clip-rule="evenodd" d="M20.9392 25.394L17.6482 23.051L17.9012 25.078V26.218L20.1802 25.775L20.9392 25.394Z" fill="white"/>
</g>
</mask>
<g mask="url(#mask29_999_13289)">
<g id="&#234;&#183;&#184;&#235;&#163;&#185; 5452">
<g id="Clip path group_31">
<mask id="mask30_999_13289" style="mask-type:luminance" maskUnits="userSpaceOnUse" x="-4" y="-6" width="39" height="45">
<g id="clip-path-3_15">
<path id="&#237;&#140;&#168;&#236;&#138;&#164; 89_15" d="M-3.06274 38.7161H34.5663V-5.85986H-3.06274V38.7161Z" fill="white"/>
</g>
</mask>
<g mask="url(#mask30_999_13289)">
<g id="&#234;&#183;&#184;&#235;&#163;&#185; 5451">
<path id="&#237;&#140;&#168;&#236;&#138;&#164; 130" d="M17.1973 26.6671H21.3913V22.5981H17.1973V26.6671Z" fill="#DECDC3"/>
</g>
</g>
</g>
</g>
</g>
</g>
<g id="Clip path group_32">
<mask id="mask31_999_13289" style="mask-type:luminance" maskUnits="userSpaceOnUse" x="11" y="18" width="3" height="3">
<g id="clip-path-32">
<path id="&#237;&#140;&#168;&#236;&#138;&#164; 135" fill-rule="evenodd" clip-rule="evenodd" d="M12.9651 18.553L13.6651 20.01L11.196 19.377L12.9651 18.553Z" fill="white"/>
</g>
</mask>
<g mask="url(#mask31_999_13289)">
<g id="&#234;&#183;&#184;&#235;&#163;&#185; 5454">
<g id="Clip path group_33">
<mask id="mask32_999_13289" style="mask-type:luminance" maskUnits="userSpaceOnUse" x="-4" y="-6" width="39" height="45">
<g id="clip-path-3_16">
<path id="&#237;&#140;&#168;&#236;&#138;&#164; 89_16" d="M-3.06201 38.7159H34.567V-5.86011H-3.06201V38.7159Z" fill="white"/>
</g>
</mask>
<g mask="url(#mask32_999_13289)">
<g id="&#234;&#183;&#184;&#235;&#163;&#185; 5453">
<path id="&#237;&#140;&#168;&#236;&#138;&#164; 133" d="M10.741 20.4579H14.112V18.0989H10.741V20.4579Z" fill="#383838"/>
</g>
</g>
</g>
</g>
</g>
</g>
<g id="Clip path group_34">
<mask id="mask33_999_13289" style="mask-type:luminance" maskUnits="userSpaceOnUse" x="5" y="5" width="9" height="8">
<g id="clip-path-34">
<path id="&#237;&#140;&#168;&#236;&#138;&#164; 138" fill-rule="evenodd" clip-rule="evenodd" d="M5.36914 5.94897L13.9781 12.472L12.5221 8.92496L5.36914 5.94897Z" fill="white"/>
</g>
</mask>
<g mask="url(#mask33_999_13289)">
<g id="&#234;&#183;&#184;&#235;&#163;&#185; 5456">
<g id="Clip path group_35">
<mask id="mask34_999_13289" style="mask-type:luminance" maskUnits="userSpaceOnUse" x="-4" y="-6" width="39" height="45">
<g id="clip-path-3_17">
<path id="&#237;&#140;&#168;&#236;&#138;&#164; 89_17" d="M-3.06177 38.7159H34.5672V-5.86011H-3.06177V38.7159Z" fill="white"/>
</g>
</mask>
<g mask="url(#mask34_999_13289)">
<g id="&#234;&#183;&#184;&#235;&#163;&#185; 5455">
<path id="&#237;&#140;&#168;&#236;&#138;&#164; 136" d="M4.91821 5.4978H14.4292V12.9238H4.91821V5.4978Z" fill="#E78E34"/>
</g>
</g>
</g>
</g>
</g>
</g>
<g id="Clip path group_36">
<mask id="mask35_999_13289" style="mask-type:luminance" maskUnits="userSpaceOnUse" x="4" y="5" width="10" height="12">
<g id="clip-path-36">
<path id="&#237;&#140;&#168;&#236;&#138;&#164; 141" fill-rule="evenodd" clip-rule="evenodd" d="M5.368 5.94897L4.229 9.43295L4.86201 13.233L4.423 13.481L5.05601 14.052L4.55 14.495L5.25001 15.128L4.80701 15.508L5.82001 16.775L10.567 15.318C11.7568 14.4299 12.8978 13.4781 13.985 12.4669C13.937 12.4289 11.0647 10.2563 5.368 5.94897Z" fill="white"/>
</g>
</mask>
<g mask="url(#mask35_999_13289)">
<g id="&#234;&#183;&#184;&#235;&#163;&#185; 5458">
<g id="Clip path group_37">
<mask id="mask36_999_13289" style="mask-type:luminance" maskUnits="userSpaceOnUse" x="-4" y="-6" width="39" height="45">
<g id="clip-path-3_18">
<path id="&#237;&#140;&#168;&#236;&#138;&#164; 89_18" d="M-3.06299 38.7159H34.566V-5.86011H-3.06299V38.7159Z" fill="white"/>
</g>
</mask>
<g mask="url(#mask36_999_13289)">
<g id="&#234;&#183;&#184;&#235;&#163;&#185; 5457">
<path id="&#237;&#140;&#168;&#236;&#138;&#164; 139" d="M3.77808 5.4978H14.4291V17.2298H3.77808V5.4978Z" fill="#8D5A30"/>
</g>
</g>
</g>
</g>
</g>
</g>
<g id="Clip path group_38">
<mask id="mask37_999_13289" style="mask-type:luminance" maskUnits="userSpaceOnUse" x="20" y="14" width="8" height="8">
<g id="clip-path-38">
<path id="&#237;&#140;&#168;&#236;&#138;&#164; 144" fill-rule="evenodd" clip-rule="evenodd" d="M25.9401 16.7159L27.7131 21.8469L23.2821 21.5929H20.4341V19.3769L20.5601 14.8169L21.1941 15.3239L25.9401 16.7159Z" fill="white"/>
</g>
</mask>
<g mask="url(#mask37_999_13289)">
<g id="&#234;&#183;&#184;&#235;&#163;&#185; 5460">
<g id="Clip path group_39">
<mask id="mask38_999_13289" style="mask-type:luminance" maskUnits="userSpaceOnUse" x="-4" y="-6" width="39" height="45">
<g id="clip-path-3_19">
<path id="&#237;&#140;&#168;&#236;&#138;&#164; 89_19" d="M-3.06299 38.7159H34.566V-5.86011H-3.06299V38.7159Z" fill="white"/>
</g>
</mask>
<g mask="url(#mask38_999_13289)">
<g id="&#234;&#183;&#184;&#235;&#163;&#185; 5459">
<path id="&#237;&#140;&#168;&#236;&#138;&#164; 142" d="M19.9819 22.298H28.1629V14.365H19.9819V22.298Z" fill="#F79D34"/>
</g>
</g>
</g>
</g>
</g>
</g>
<g id="Clip path group_40">
<mask id="mask39_999_13289" style="mask-type:luminance" maskUnits="userSpaceOnUse" x="17" y="17" width="6" height="4">
<g id="clip-path-40">
<path id="&#237;&#140;&#168;&#236;&#138;&#164; 147" fill-rule="evenodd" clip-rule="evenodd" d="M22.584 17.2859L17.394 17.4129L17.964 20.0739L20.433 19.4399L22.584 17.2859Z" fill="white"/>
</g>
</mask>
<g mask="url(#mask39_999_13289)">
<g id="&#234;&#183;&#184;&#235;&#163;&#185; 5462">
<g id="Clip path group_41">
<mask id="mask40_999_13289" style="mask-type:luminance" maskUnits="userSpaceOnUse" x="-4" y="-6" width="39" height="45">
<g id="clip-path-3_20">
<path id="&#237;&#140;&#168;&#236;&#138;&#164; 89_20" d="M-3.06299 38.7159H34.566V-5.86011H-3.06299V38.7159Z" fill="white"/>
</g>
</mask>
<g mask="url(#mask40_999_13289)">
<g id="&#234;&#183;&#184;&#235;&#163;&#185; 5461">
<path id="&#237;&#140;&#168;&#236;&#138;&#164; 145" d="M16.943 20.523H23.032V16.834H16.939L16.943 20.523Z" fill="#D77B30"/>
</g>
</g>
</g>
</g>
</g>
</g>
<g id="Clip path group_42">
<mask id="mask41_999_13289" style="mask-type:luminance" maskUnits="userSpaceOnUse" x="20" y="17" width="3" height="5">
<g id="clip-path-42">
<path id="&#237;&#140;&#168;&#236;&#138;&#164; 150" fill-rule="evenodd" clip-rule="evenodd" d="M22.5851 17.3499L20.4331 19.3768V21.4039L22.5851 17.3499Z" fill="white"/>
</g>
</mask>
<g mask="url(#mask41_999_13289)">
<g id="&#234;&#183;&#184;&#235;&#163;&#185; 5464">
<g id="Clip path group_43">
<mask id="mask42_999_13289" style="mask-type:luminance" maskUnits="userSpaceOnUse" x="-4" y="-6" width="39" height="45">
<g id="clip-path-3_21">
<path id="&#237;&#140;&#168;&#236;&#138;&#164; 89_21" d="M-3.06299 38.7169H34.566V-5.85913H-3.06299V38.7169Z" fill="white"/>
</g>
</mask>
<g mask="url(#mask42_999_13289)">
<g id="&#234;&#183;&#184;&#235;&#163;&#185; 5463">
<path id="&#237;&#140;&#168;&#236;&#138;&#164; 148" d="M19.9819 21.8549H23.0359V16.8999H19.9819V21.8549Z" fill="#EA8D3A"/>
</g>
</g>
</g>
</g>
</g>
</g>
<g id="Clip path group_44">
<mask id="mask43_999_13289" style="mask-type:luminance" maskUnits="userSpaceOnUse" x="17" y="19" width="4" height="5">
<g id="clip-path-44">
<path id="&#237;&#140;&#168;&#236;&#138;&#164; 153" fill-rule="evenodd" clip-rule="evenodd" d="M20.4341 19.4399L17.9021 20.073L17.0791 22.797L17.6491 23.114L20.4341 21.4669V19.4399Z" fill="white"/>
</g>
</mask>
<g mask="url(#mask43_999_13289)">
<g id="&#234;&#183;&#184;&#235;&#163;&#185; 5466">
<g id="Clip path group_45">
<mask id="mask44_999_13289" style="mask-type:luminance" maskUnits="userSpaceOnUse" x="-4" y="-6" width="39" height="45">
<g id="clip-path-3_22">
<path id="&#237;&#140;&#168;&#236;&#138;&#164; 89_22" d="M-3.06201 38.7159H34.567V-5.86011H-3.06201V38.7159Z" fill="white"/>
</g>
</mask>
<g mask="url(#mask44_999_13289)">
<g id="&#234;&#183;&#184;&#235;&#163;&#185; 5465">
<path id="&#237;&#140;&#168;&#236;&#138;&#164; 151" d="M16.624 23.5648H20.881V18.9888H16.624V23.5648Z" fill="#F79D34"/>
</g>
</g>
</g>
</g>
</g>
</g>
<g id="Clip path group_46">
<mask id="mask45_999_13289" style="mask-type:luminance" maskUnits="userSpaceOnUse" x="17" y="21" width="4" height="5">
<g id="clip-path-46">
<path id="&#237;&#140;&#168;&#236;&#138;&#164; 156" fill-rule="evenodd" clip-rule="evenodd" d="M20.4312 21.467L20.9382 25.394L17.6472 23.114L20.4312 21.467Z" fill="white"/>
</g>
</mask>
<g mask="url(#mask45_999_13289)">
<g id="&#234;&#183;&#184;&#235;&#163;&#185; 5468">
<g id="Clip path group_47">
<mask id="mask46_999_13289" style="mask-type:luminance" maskUnits="userSpaceOnUse" x="-4" y="-6" width="39" height="45">
<g id="clip-path-3_23">
<path id="&#237;&#140;&#168;&#236;&#138;&#164; 89_23" d="M-3.06274 38.7171H34.5663V-5.85889H-3.06274V38.7171Z" fill="white"/>
</g>
</mask>
<g mask="url(#mask46_999_13289)">
<g id="&#234;&#183;&#184;&#235;&#163;&#185; 5467">
<path id="&#237;&#140;&#168;&#236;&#138;&#164; 154" d="M17.1973 25.8451H21.3913V21.0161H17.1973V25.8451Z" fill="#EA8E34"/>
</g>
</g>
</g>
</g>
</g>
</g>
<g id="Clip path group_48">
<mask id="mask47_999_13289" style="mask-type:luminance" maskUnits="userSpaceOnUse" x="17" y="17" width="2" height="6">
<g id="clip-path-48">
<path id="&#237;&#140;&#168;&#236;&#138;&#164; 159" fill-rule="evenodd" clip-rule="evenodd" d="M17.3951 17.4131L17.0791 22.7961L18.0291 20.0411L17.3951 17.4131Z" fill="white"/>
</g>
</mask>
<g mask="url(#mask47_999_13289)">
<g id="&#234;&#183;&#184;&#235;&#163;&#185; 5470">
<g id="Clip path group_49">
<mask id="mask48_999_13289" style="mask-type:luminance" maskUnits="userSpaceOnUse" x="-4" y="-6" width="39" height="45">
<g id="clip-path-3_24">
<path id="&#237;&#140;&#168;&#236;&#138;&#164; 89_24" d="M-3.06201 38.7161H34.567V-5.85986H-3.06201V38.7161Z" fill="white"/>
</g>
</mask>
<g mask="url(#mask48_999_13289)">
<g id="&#234;&#183;&#184;&#235;&#163;&#185; 5469">
<path id="&#237;&#140;&#168;&#236;&#138;&#164; 157" d="M16.624 23.253H18.476V16.967H16.624V23.253Z" fill="#EA8D3A"/>
</g>
</g>
</g>
</g>
</g>
</g>
<g id="Clip path group_50">
<mask id="mask49_999_13289" style="mask-type:luminance" maskUnits="userSpaceOnUse" x="20" y="21" width="4" height="5">
<g id="clip-path-50">
<path id="&#237;&#140;&#168;&#236;&#138;&#164; 162" fill-rule="evenodd" clip-rule="evenodd" d="M23.3451 21.531L20.4341 21.468L20.9401 25.395L23.3451 21.531Z" fill="white"/>
</g>
</mask>
<g mask="url(#mask49_999_13289)">
<g id="&#234;&#183;&#184;&#235;&#163;&#185; 5472">
<g id="Clip path group_51">
<mask id="mask50_999_13289" style="mask-type:luminance" maskUnits="userSpaceOnUse" x="-4" y="-6" width="39" height="45">
<g id="clip-path-3_25">
<path id="&#237;&#140;&#168;&#236;&#138;&#164; 89_25" d="M-3.06299 38.7171H34.566V-5.85889H-3.06299V38.7171Z" fill="white"/>
</g>
</mask>
<g mask="url(#mask50_999_13289)">
<g id="&#234;&#183;&#184;&#235;&#163;&#185; 5471">
<path id="&#237;&#140;&#168;&#236;&#138;&#164; 160" d="M19.9819 25.8451H23.8V21.0161H19.9859L19.9819 25.8451Z" fill="#D77B30"/>
</g>
</g>
</g>
</g>
</g>
</g>
<g id="Clip path group_52">
<mask id="mask51_999_13289" style="mask-type:luminance" maskUnits="userSpaceOnUse" x="20" y="21" width="8" height="7">
<g id="clip-path-52">
<path id="&#237;&#140;&#168;&#236;&#138;&#164; 165" fill-rule="evenodd" clip-rule="evenodd" d="M26.3212 27.104L20.9402 25.394L23.3452 21.53L27.7122 21.847L26.3212 27.104Z" fill="white"/>
</g>
</mask>
<g mask="url(#mask51_999_13289)">
<g id="&#234;&#183;&#184;&#235;&#163;&#185; 5474">
<g id="Clip path group_53">
<mask id="mask52_999_13289" style="mask-type:luminance" maskUnits="userSpaceOnUse" x="-4" y="-6" width="39" height="45">
<g id="clip-path-3_26">
<path id="&#237;&#140;&#168;&#236;&#138;&#164; 89_26" d="M-3.06177 38.7161H34.5672V-5.85986H-3.06177V38.7161Z" fill="white"/>
</g>
</mask>
<g mask="url(#mask52_999_13289)">
<g id="&#234;&#183;&#184;&#235;&#163;&#185; 5473">
<path id="&#237;&#140;&#168;&#236;&#138;&#164; 163" d="M20.4893 27.5541H28.1642V21.0781H20.4893V27.5541Z" fill="#D77B30"/>
</g>
</g>
</g>
</g>
</g>
</g>
<g id="Clip path group_54">
<mask id="mask53_999_13289" style="mask-type:luminance" maskUnits="userSpaceOnUse" x="17" y="12" width="6" height="6">
<g id="clip-path-54">
<path id="&#237;&#140;&#168;&#236;&#138;&#164; 168" fill-rule="evenodd" clip-rule="evenodd" d="M17.775 12.4729L20.497 14.7529L22.586 17.2859L17.396 17.4759L17.775 12.4729Z" fill="white"/>
</g>
</mask>
<g mask="url(#mask53_999_13289)">
<g id="&#234;&#183;&#184;&#235;&#163;&#185; 5476">
<g id="Clip path group_55">
<mask id="mask54_999_13289" style="mask-type:luminance" maskUnits="userSpaceOnUse" x="-4" y="-6" width="39" height="45">
<g id="clip-path-3_27">
<path id="&#237;&#140;&#168;&#236;&#138;&#164; 89_27" d="M-3.06299 38.7159H34.566V-5.86011H-3.06299V38.7159Z" fill="white"/>
</g>
</mask>
<g mask="url(#mask54_999_13289)">
<g id="&#234;&#183;&#184;&#235;&#163;&#185; 5475">
<path id="&#237;&#140;&#168;&#236;&#138;&#164; 166" d="M16.943 17.927H23.032V12.022H16.939L16.943 17.927Z" fill="#E7811E"/>
</g>
</g>
</g>
</g>
</g>
</g>
<g id="Clip path group_56">
<mask id="mask55_999_13289" style="mask-type:luminance" maskUnits="userSpaceOnUse" x="18" y="18" width="3" height="3">
<g id="clip-path-56">
<path id="&#237;&#140;&#168;&#236;&#138;&#164; 171" fill-rule="evenodd" clip-rule="evenodd" d="M18.7872 18.553L18.0872 20.01L20.5562 19.377L18.7872 18.553Z" fill="white"/>
</g>
</mask>
<g mask="url(#mask55_999_13289)">
<g id="&#234;&#183;&#184;&#235;&#163;&#185; 5478">
<g id="Clip path group_57">
<mask id="mask56_999_13289" style="mask-type:luminance" maskUnits="userSpaceOnUse" x="-4" y="-6" width="39" height="45">
<g id="clip-path-3_28">
<path id="&#237;&#140;&#168;&#236;&#138;&#164; 89_28" d="M-3.06274 38.7159H34.5663V-5.86011H-3.06274V38.7159Z" fill="white"/>
</g>
</mask>
<g mask="url(#mask56_999_13289)">
<g id="&#234;&#183;&#184;&#235;&#163;&#185; 5477">
<path id="&#237;&#140;&#168;&#236;&#138;&#164; 169" d="M17.6401 18.1008H21.0131V20.4598H17.6421L17.6401 18.1008Z" fill="#383838"/>
</g>
</g>
</g>
</g>
</g>
</g>
<g id="Clip path group_58">
<mask id="mask57_999_13289" style="mask-type:luminance" maskUnits="userSpaceOnUse" x="17" y="5" width="10" height="8">
<g id="clip-path-58">
<path id="&#237;&#140;&#168;&#236;&#138;&#164; 174" fill-rule="evenodd" clip-rule="evenodd" d="M26.3842 5.94897L17.7751 12.472L19.2312 8.92496L26.3842 5.94897Z" fill="white"/>
</g>
</mask>
<g mask="url(#mask57_999_13289)">
<g id="&#234;&#183;&#184;&#235;&#163;&#185; 5480">
<g id="Clip path group_59">
<mask id="mask58_999_13289" style="mask-type:luminance" maskUnits="userSpaceOnUse" x="-4" y="-6" width="39" height="45">
<g id="clip-path-3_29">
<path id="&#237;&#140;&#168;&#236;&#138;&#164; 89_29" d="M-3.06177 38.7159H34.5672V-5.86011H-3.06177V38.7159Z" fill="white"/>
</g>
</mask>
<g mask="url(#mask58_999_13289)">
<g id="&#234;&#183;&#184;&#235;&#163;&#185; 5479">
<path id="&#237;&#140;&#168;&#236;&#138;&#164; 172" d="M17.3242 12.9238H26.8352V5.4978H17.3242V12.9238Z" fill="#E78E34"/>
</g>
</g>
</g>
</g>
</g>
</g>
<g id="Clip path group_60">
<mask id="mask59_999_13289" style="mask-type:luminance" maskUnits="userSpaceOnUse" x="17" y="5" width="11" height="12">
<g id="clip-path-60">
<path id="&#237;&#140;&#168;&#236;&#138;&#164; 177" fill-rule="evenodd" clip-rule="evenodd" d="M26.383 5.94897L27.522 9.43295L26.889 13.233L27.333 13.487L26.7 14.058L27.206 14.501L26.506 15.134L26.949 15.514L25.937 16.781L21.189 15.324C19.9991 14.436 18.8581 13.4842 17.771 12.473C17.8157 12.431 20.6863 10.2563 26.383 5.94897Z" fill="white"/>
</g>
</mask>
<g mask="url(#mask59_999_13289)">
<g id="&#234;&#183;&#184;&#235;&#163;&#185; 5482">
<g id="Clip path group_61">
<mask id="mask60_999_13289" style="mask-type:luminance" maskUnits="userSpaceOnUse" x="-4" y="-6" width="39" height="45">
<g id="clip-path-3_30">
<path id="&#237;&#140;&#168;&#236;&#138;&#164; 89_30" d="M-3.06201 38.7159H34.567V-5.86011H-3.06201V38.7159Z" fill="white"/>
</g>
</mask>
<g mask="url(#mask60_999_13289)">
<g id="&#234;&#183;&#184;&#235;&#163;&#185; 5481">
<path id="&#237;&#140;&#168;&#236;&#138;&#164; 175" d="M17.323 17.2298H27.974V5.4978H17.323V17.2298Z" fill="#8D5A30"/>
</g>
</g>
</g>
</g>
</g>
</g>
</g>
</g>
</g>
</g>
<g id="Clip path group_62">
<mask id="mask61_999_13289" style="mask-type:luminance" maskUnits="userSpaceOnUse" x="9" y="25" width="7" height="4">
<g id="clip-path-62">
<path id="&#237;&#140;&#168;&#236;&#138;&#164; 179" fill-rule="evenodd" clip-rule="evenodd" d="M9.03003 25.9719L13.165 27.0719V25.6339L13.503 25.2959H15.866V28.1719H13.334L10.211 26.8189L9.03003 25.9719Z" fill="white"/>
</g>
</mask>
<g mask="url(#mask61_999_13289)">
<g id="&#234;&#183;&#184;&#235;&#163;&#185; 5485">
<path id="&#237;&#140;&#168;&#236;&#138;&#164; 178" d="M8.5791 24.844H16.3171V28.623H8.5791V24.844Z" fill="#CDBDB1"/>
</g>
</g>
</g>
<g id="Clip path group_63">
<mask id="mask62_999_13289" style="mask-type:luminance" maskUnits="userSpaceOnUse" x="15" y="25" width="8" height="4">
<g id="clip-path-63">
<path id="&#237;&#140;&#168;&#236;&#138;&#164; 181" fill-rule="evenodd" clip-rule="evenodd" d="M22.534 25.9719L18.483 27.0719V25.6339L18.145 25.2959H15.782V28.1719H18.314L21.437 26.8189L22.534 25.9719Z" fill="white"/>
</g>
</mask>
<g mask="url(#mask62_999_13289)">
<g id="&#234;&#183;&#184;&#235;&#163;&#185; 5486">
<path id="&#237;&#140;&#168;&#236;&#138;&#164; 180" d="M15.3311 28.623H22.985V24.844H15.3311V28.623Z" fill="#CDBDB1"/>
</g>
</g>
</g>
<g id="Clip path group_64">
<mask id="mask63_999_13289" style="mask-type:luminance" maskUnits="userSpaceOnUse" x="13" y="22" width="6" height="4">
<g id="clip-path-64">
<path id="&#237;&#140;&#168;&#236;&#138;&#164; 183" fill-rule="evenodd" clip-rule="evenodd" d="M13.503 22.8439L13.165 25.6359L13.587 25.2979H17.976L18.482 25.6359L18.1451 22.8439L17.47 22.4209L14.094 22.5059L13.503 22.8439Z" fill="white"/>
</g>
</mask>
<g mask="url(#mask63_999_13289)">
<g id="&#234;&#183;&#184;&#235;&#163;&#185; 5487">
<path id="&#237;&#140;&#168;&#236;&#138;&#164; 182" d="M12.7141 21.968H18.9331V26.085H12.7141V21.968Z" fill="#383838"/>
</g>
</g>
</g>
<g id="Clip path group_65">
<mask id="mask64_999_13289" style="mask-type:luminance" maskUnits="userSpaceOnUse" x="11" y="3" width="10" height="20">
<g id="clip-path-65">
<path id="&#237;&#140;&#168;&#236;&#138;&#164; 185" fill-rule="evenodd" clip-rule="evenodd" d="M11.2241 3.97705L13.2501 8.71405L14.1781 22.5031H17.4691L18.4821 8.71405L20.3391 3.97705H11.2241Z" fill="white"/>
</g>
</mask>
<g mask="url(#mask64_999_13289)">
<g id="&#234;&#183;&#184;&#235;&#163;&#185; 5488">
<path id="&#237;&#140;&#168;&#236;&#138;&#164; 184" d="M10.7732 3.52612H20.7912V22.9551H10.7732V3.52612Z" fill="#F79B34"/>
</g>
</g>
</g>
<g id="Clip path group_66">
<mask id="mask65_999_13289" style="mask-type:luminance" maskUnits="userSpaceOnUse" x="0" y="11" width="10" height="11">
<g id="clip-path-66">
<path id="&#237;&#140;&#168;&#236;&#138;&#164; 187" fill-rule="evenodd" clip-rule="evenodd" d="M2.36398 14.382L0.000976562 21.235L5.90898 20.896H9.70898V17.935L9.53998 11.844L8.69598 12.521L2.36398 14.382Z" fill="white"/>
</g>
</mask>
<g mask="url(#mask65_999_13289)">
<g id="&#234;&#183;&#184;&#235;&#163;&#185; 5489">
<path id="&#237;&#140;&#168;&#236;&#138;&#164; 186" d="M-0.451904 11.3921H10.1561V21.6851H-0.451904V11.3921Z" fill="#F79D34"/>
</g>
</g>
</g>
<g id="Clip path group_67">
<mask id="mask66_999_13289" style="mask-type:luminance" maskUnits="userSpaceOnUse" x="6" y="15" width="8" height="4">
<g id="clip-path-67">
<path id="&#237;&#140;&#168;&#236;&#138;&#164; 189" fill-rule="evenodd" clip-rule="evenodd" d="M6.83496 15.1431L13.755 15.3121L12.996 18.8651L9.70496 18.0191L6.83496 15.1431Z" fill="white"/>
</g>
</mask>
<g mask="url(#mask66_999_13289)">
<g id="&#234;&#183;&#184;&#235;&#163;&#185; 5490">
<path id="&#237;&#140;&#168;&#236;&#138;&#164; 188" d="M6.38403 14.6921H14.207V19.3171H6.38403V14.6921Z" fill="#D77B30"/>
</g>
</g>
</g>
<g id="Clip path group_68">
<mask id="mask67_999_13289" style="mask-type:luminance" maskUnits="userSpaceOnUse" x="6" y="15" width="4" height="6">
<g id="clip-path-68">
<path id="&#237;&#140;&#168;&#236;&#138;&#164; 191" fill-rule="evenodd" clip-rule="evenodd" d="M6.83496 15.228L9.70396 17.935V20.642L6.83496 15.228Z" fill="white"/>
</g>
</mask>
<g mask="url(#mask67_999_13289)">
<g id="&#234;&#183;&#184;&#235;&#163;&#185; 5491">
<path id="&#237;&#140;&#168;&#236;&#138;&#164; 190" d="M6.38403 14.7771H10.156V21.0901H6.38403V14.7771Z" fill="#EA8D3A"/>
</g>
</g>
</g>
<g id="Clip path group_69">
<mask id="mask68_999_13289" style="mask-type:luminance" maskUnits="userSpaceOnUse" x="9" y="18" width="6" height="5">
<g id="clip-path-69">
<path id="&#237;&#140;&#168;&#236;&#138;&#164; 193" fill-rule="evenodd" clip-rule="evenodd" d="M9.70508 18.02L13.0811 18.866L14.1811 22.504L13.4211 22.927L9.70708 20.727L9.70508 18.02Z" fill="white"/>
</g>
</mask>
<g mask="url(#mask68_999_13289)">
<g id="&#234;&#183;&#184;&#235;&#163;&#185; 5492">
<path id="&#237;&#140;&#168;&#236;&#138;&#164; 192" d="M9.25415 17.5691H14.6292V23.3781H9.25415V17.5691Z" fill="#F79D34"/>
</g>
</g>
</g>
<g id="Clip path group_70">
<mask id="mask69_999_13289" style="mask-type:luminance" maskUnits="userSpaceOnUse" x="9" y="20" width="5" height="6">
<g id="clip-path-70">
<path id="&#237;&#140;&#168;&#236;&#138;&#164; 195" fill-rule="evenodd" clip-rule="evenodd" d="M9.70601 20.7271L9.03101 25.972L13.504 22.8421L9.70601 20.7271Z" fill="white"/>
</g>
</mask>
<g mask="url(#mask69_999_13289)">
<g id="&#234;&#183;&#184;&#235;&#163;&#185; 5493">
<path id="&#237;&#140;&#168;&#236;&#138;&#164; 194" d="M8.5791 20.2761H13.9541V26.4241H8.5791V20.2761Z" fill="#EA8E34"/>
</g>
</g>
</g>
<g id="Clip path group_71">
<mask id="mask70_999_13289" style="mask-type:luminance" maskUnits="userSpaceOnUse" x="12" y="15" width="3" height="8">
<g id="clip-path-71">
<path id="&#237;&#140;&#168;&#236;&#138;&#164; 197" fill-rule="evenodd" clip-rule="evenodd" d="M13.7561 15.313L14.1781 22.503L12.9121 18.824L13.7561 15.313Z" fill="white"/>
</g>
</mask>
<g mask="url(#mask70_999_13289)">
<g id="&#234;&#183;&#184;&#235;&#163;&#185; 5494">
<path id="&#237;&#140;&#168;&#236;&#138;&#164; 196" d="M12.461 14.8621H14.626V22.9551H12.458L12.461 14.8621Z" fill="#EA8D3A"/>
</g>
</g>
</g>
<g id="Clip path group_72">
<mask id="mask71_999_13289" style="mask-type:luminance" maskUnits="userSpaceOnUse" x="5" y="20" width="5" height="6">
<g id="clip-path-72">
<path id="&#237;&#140;&#168;&#236;&#138;&#164; 199" fill-rule="evenodd" clip-rule="evenodd" d="M5.823 20.8121L9.70499 20.7271L9.03 25.972L5.823 20.8121Z" fill="white"/>
</g>
</mask>
<g mask="url(#mask71_999_13289)">
<g id="&#234;&#183;&#184;&#235;&#163;&#185; 5495">
<path id="&#237;&#140;&#168;&#236;&#138;&#164; 198" d="M5.37207 20.2761H10.1571V26.4241H5.37207V20.2761Z" fill="#D77B30"/>
</g>
</g>
</g>
<g id="Clip path group_73">
<mask id="mask72_999_13289" style="mask-type:luminance" maskUnits="userSpaceOnUse" x="0" y="20" width="10" height="9">
<g id="clip-path-73">
<path id="&#237;&#140;&#168;&#236;&#138;&#164; 201" fill-rule="evenodd" clip-rule="evenodd" d="M1.856 28.255L9.03 25.971L5.823 20.811L0 21.234L1.856 28.255Z" fill="white"/>
</g>
</mask>
<g mask="url(#mask72_999_13289)">
<g id="&#234;&#183;&#184;&#235;&#163;&#185; 5496">
<path id="&#237;&#140;&#168;&#236;&#138;&#164; 200" d="M-0.451904 20.3601H9.48109V28.7071H-0.451904V20.3601Z" fill="#EA8E34"/>
</g>
</g>
</g>
<g id="Clip path group_74">
<mask id="mask73_999_13289" style="mask-type:luminance" maskUnits="userSpaceOnUse" x="6" y="8" width="8" height="8">
<g id="clip-path-74">
<path id="&#237;&#140;&#168;&#236;&#138;&#164; 203" fill-rule="evenodd" clip-rule="evenodd" d="M13.249 8.71387L9.61996 11.7599L6.83496 15.1439L13.755 15.3979L13.249 8.71387Z" fill="white"/>
</g>
</mask>
<g mask="url(#mask73_999_13289)">
<g id="&#234;&#183;&#184;&#235;&#163;&#185; 5497">
<path id="&#237;&#140;&#168;&#236;&#138;&#164; 202" d="M6.38403 8.26294H14.207V15.8479H6.38403V8.26294Z" fill="#E7811E"/>
</g>
</g>
</g>
<g id="Clip path group_75">
<mask id="mask74_999_13289" style="mask-type:luminance" maskUnits="userSpaceOnUse" x="9" y="22" width="5" height="6">
<g id="clip-path-75">
<path id="&#237;&#140;&#168;&#236;&#138;&#164; 205" fill-rule="evenodd" clip-rule="evenodd" d="M9.03003 25.973L13.503 22.843L13.165 25.55V27.073L10.127 26.481L9.03003 25.973Z" fill="white"/>
</g>
</mask>
<g mask="url(#mask74_999_13289)">
<g id="&#234;&#183;&#184;&#235;&#163;&#185; 5498">
<path id="&#237;&#140;&#168;&#236;&#138;&#164; 204" d="M8.5791 22.3911H13.9541V27.5231H8.5791V22.3911Z" fill="#DECDC3"/>
</g>
</g>
</g>
<g id="Clip path group_76">
<mask id="mask75_999_13289" style="mask-type:luminance" maskUnits="userSpaceOnUse" x="18" y="22" width="5" height="6">
<g id="clip-path-76">
<path id="&#237;&#140;&#168;&#236;&#138;&#164; 207" fill-rule="evenodd" clip-rule="evenodd" d="M22.533 25.973L18.145 22.843L18.482 25.55V27.073L21.521 26.481L22.533 25.973Z" fill="white"/>
</g>
</mask>
<g mask="url(#mask75_999_13289)">
<g id="&#234;&#183;&#184;&#235;&#163;&#185; 5499">
<path id="&#237;&#140;&#168;&#236;&#138;&#164; 206" d="M17.6931 27.5231H22.9841V22.3911H17.6931V27.5231Z" fill="#DECDC3"/>
</g>
</g>
</g>
<g id="Clip path group_77">
<mask id="mask76_999_13289" style="mask-type:luminance" maskUnits="userSpaceOnUse" x="9" y="16" width="4" height="3">
<g id="clip-path-77">
<path id="&#237;&#140;&#168;&#236;&#138;&#164; 209" fill-rule="evenodd" clip-rule="evenodd" d="M11.8989 16.835L12.8269 18.781L9.53491 17.935L11.8989 16.835Z" fill="white"/>
</g>
</mask>
<g mask="url(#mask76_999_13289)">
<g id="&#234;&#183;&#184;&#235;&#163;&#185; 5500">
<path id="&#237;&#140;&#168;&#236;&#138;&#164; 208" d="M9.08496 19.232H13.279V16.384H9.08496V19.232Z" fill="#383838"/>
</g>
</g>
</g>
<g id="Clip path group_78">
<mask id="mask77_999_13289" style="mask-type:luminance" maskUnits="userSpaceOnUse" x="1" y="0" width="13" height="9">
<g id="clip-path-78">
<path id="&#237;&#140;&#168;&#236;&#138;&#164; 211" fill-rule="evenodd" clip-rule="evenodd" d="M1.77197 0L13.25 8.71399L11.309 3.97598L1.77197 0Z" fill="white"/>
</g>
</mask>
<g mask="url(#mask77_999_13289)">
<g id="&#234;&#183;&#184;&#235;&#163;&#185; 5501">
<path id="&#237;&#140;&#168;&#236;&#138;&#164; 210" d="M1.32007 -0.451904H13.7001V9.16309H1.32007V-0.451904Z" fill="#E78E34"/>
</g>
</g>
</g>
<g id="Clip path group_79">
<mask id="mask78_999_13289" style="mask-type:luminance" maskUnits="userSpaceOnUse" x="0" y="0" width="14" height="15">
<g id="clip-path-79">
<path id="&#237;&#140;&#168;&#236;&#138;&#164; 213" fill-rule="evenodd" clip-rule="evenodd" d="M1.77095 0L0.251953 4.65298L1.09595 9.72897L0.504951 10.067L1.34895 10.829L0.67395 11.421L1.60195 12.267L1.01095 12.775L2.36095 14.467L8.69095 12.521C10.2768 11.3346 11.798 10.0641 13.248 8.715C13.1926 8.657 9.36695 5.752 1.77095 0Z" fill="white"/>
</g>
</mask>
<g mask="url(#mask78_999_13289)">
<g id="&#234;&#183;&#184;&#235;&#163;&#185; 5502">
<path id="&#237;&#140;&#168;&#236;&#138;&#164; 212" d="M-0.198975 -0.451904H13.701V14.9161H-0.198975V-0.451904Z" fill="#8D5A30"/>
</g>
</g>
</g>
<g id="Clip path group_80">
<mask id="mask79_999_13289" style="mask-type:luminance" maskUnits="userSpaceOnUse" x="21" y="11" width="11" height="11">
<g id="clip-path-80">
<path id="&#237;&#140;&#168;&#236;&#138;&#164; 215" fill-rule="evenodd" clip-rule="evenodd" d="M29.2009 14.382L31.5649 21.235L25.6569 20.896H21.8569V17.935L22.0259 11.844L22.8699 12.521L29.2009 14.382Z" fill="white"/>
</g>
</mask>
<g mask="url(#mask79_999_13289)">
<g id="&#234;&#183;&#184;&#235;&#163;&#185; 5503">
<path id="&#237;&#140;&#168;&#236;&#138;&#164; 214" d="M21.406 21.6851H32.014V11.3921H21.406V21.6851Z" fill="#F79D34"/>
</g>
</g>
</g>
<g id="Clip path group_81">
<mask id="mask80_999_13289" style="mask-type:luminance" maskUnits="userSpaceOnUse" x="17" y="15" width="8" height="4">
<g id="clip-path-81">
<path id="&#237;&#140;&#168;&#236;&#138;&#164; 217" fill-rule="evenodd" clip-rule="evenodd" d="M24.7259 15.1431L17.8049 15.3121L18.5649 18.8651L21.8569 18.0191L24.7259 15.1431Z" fill="white"/>
</g>
</mask>
<g mask="url(#mask80_999_13289)">
<g id="&#234;&#183;&#184;&#235;&#163;&#185; 5504">
<path id="&#237;&#140;&#168;&#236;&#138;&#164; 216" d="M17.3558 19.3171H25.1748V14.6921H17.3518L17.3558 19.3171Z" fill="#D77B30"/>
</g>
</g>
</g>
<g id="Clip path group_82">
<mask id="mask81_999_13289" style="mask-type:luminance" maskUnits="userSpaceOnUse" x="21" y="15" width="4" height="6">
<g id="clip-path-82">
<path id="&#237;&#140;&#168;&#236;&#138;&#164; 219" fill-rule="evenodd" clip-rule="evenodd" d="M24.7289 15.228L21.8589 17.935V20.642L24.7289 15.228Z" fill="white"/>
</g>
</mask>
<g mask="url(#mask81_999_13289)">
<g id="&#234;&#183;&#184;&#235;&#163;&#185; 5505">
<path id="&#237;&#140;&#168;&#236;&#138;&#164; 218" d="M21.4058 21.09H25.1778V14.7729H21.4058V21.09Z" fill="#EA8D3A"/>
</g>
</g>
</g>
<g id="Clip path group_83">
<mask id="mask82_999_13289" style="mask-type:luminance" maskUnits="userSpaceOnUse" x="17" y="18" width="5" height="5">
<g id="clip-path-83">
<path id="&#237;&#140;&#168;&#236;&#138;&#164; 221" fill-rule="evenodd" clip-rule="evenodd" d="M21.8581 18.02L18.4821 18.866L17.3821 22.504L18.1421 22.927L21.8561 20.727L21.8581 18.02Z" fill="white"/>
</g>
</mask>
<g mask="url(#mask82_999_13289)">
<g id="&#234;&#183;&#184;&#235;&#163;&#185; 5506">
<path id="&#237;&#140;&#168;&#236;&#138;&#164; 220" d="M16.9292 23.3781H22.3052V17.5691H16.9292V23.3781Z" fill="#F79D34"/>
</g>
</g>
</g>
<g id="Clip path group_84">
<mask id="mask83_999_13289" style="mask-type:luminance" maskUnits="userSpaceOnUse" x="18" y="20" width="5" height="6">
<g id="clip-path-84">
<path id="&#237;&#140;&#168;&#236;&#138;&#164; 223" fill-rule="evenodd" clip-rule="evenodd" d="M21.858 20.7271L22.533 25.972L18.145 22.927L21.858 20.7271Z" fill="white"/>
</g>
</mask>
<g mask="url(#mask83_999_13289)">
<g id="&#234;&#183;&#184;&#235;&#163;&#185; 5507">
<path id="&#237;&#140;&#168;&#236;&#138;&#164; 222" d="M17.6931 26.4241H22.9841V20.2761H17.6931V26.4241Z" fill="#EA8E34"/>
</g>
</g>
</g>
<g id="Clip path group_85">
<mask id="mask84_999_13289" style="mask-type:luminance" maskUnits="userSpaceOnUse" x="17" y="15" width="2" height="8">
<g id="clip-path-85">
<path id="&#237;&#140;&#168;&#236;&#138;&#164; 225" fill-rule="evenodd" clip-rule="evenodd" d="M17.807 15.313L17.385 22.503L18.651 18.824L17.807 15.313Z" fill="white"/>
</g>
</mask>
<g mask="url(#mask84_999_13289)">
<g id="&#234;&#183;&#184;&#235;&#163;&#185; 5508">
<path id="&#237;&#140;&#168;&#236;&#138;&#164; 224" d="M16.929 22.9551H19.097V14.8621H16.929V22.9551Z" fill="#EA8D3A"/>
</g>
</g>
</g>
<g id="Clip path group_86">
<mask id="mask85_999_13289" style="mask-type:luminance" maskUnits="userSpaceOnUse" x="21" y="20" width="5" height="6">
<g id="clip-path-86">
<path id="&#237;&#140;&#168;&#236;&#138;&#164; 227" fill-rule="evenodd" clip-rule="evenodd" d="M25.7409 20.8121L21.8579 20.7271L22.5329 25.972L25.7409 20.8121Z" fill="white"/>
</g>
</mask>
<g mask="url(#mask85_999_13289)">
<g id="&#234;&#183;&#184;&#235;&#163;&#185; 5509">
<path id="&#237;&#140;&#168;&#236;&#138;&#164; 226" d="M21.406 26.4241H26.191V20.2761H21.406V26.4241Z" fill="#D77B30"/>
</g>
</g>
</g>
<g id="Clip path group_87">
<mask id="mask86_999_13289" style="mask-type:luminance" maskUnits="userSpaceOnUse" x="22" y="20" width="10" height="9">
<g id="clip-path-87">
<path id="&#237;&#140;&#168;&#236;&#138;&#164; 229" fill-rule="evenodd" clip-rule="evenodd" d="M29.707 28.255L22.533 25.971L25.74 20.811L31.564 21.234L29.707 28.255Z" fill="white"/>
</g>
</mask>
<g mask="url(#mask86_999_13289)">
<g id="&#234;&#183;&#184;&#235;&#163;&#185; 5510">
<path id="&#237;&#140;&#168;&#236;&#138;&#164; 228" d="M22.0811 28.7061H32.014V20.3591H22.0811V28.7061Z" fill="#EA8E34"/>
</g>
</g>
</g>
<g id="Clip path group_88">
<mask id="mask87_999_13289" style="mask-type:luminance" maskUnits="userSpaceOnUse" x="17" y="8" width="8" height="8">
<g id="clip-path-88">
<path id="&#237;&#140;&#168;&#236;&#138;&#164; 231" fill-rule="evenodd" clip-rule="evenodd" d="M18.3141 8.71387L21.9431 11.7599L24.7291 15.1439L17.8081 15.3979L18.3141 8.71387Z" fill="white"/>
</g>
</mask>
<g mask="url(#mask87_999_13289)">
<g id="&#234;&#183;&#184;&#235;&#163;&#185; 5511">
<path id="&#237;&#140;&#168;&#236;&#138;&#164; 230" d="M17.3561 15.8479H25.1751V8.26294H17.3521L17.3561 15.8479Z" fill="#E7811E"/>
</g>
</g>
</g>
<g id="Clip path group_89">
<mask id="mask88_999_13289" style="mask-type:luminance" maskUnits="userSpaceOnUse" x="18" y="16" width="5" height="3">
<g id="clip-path-89">
<path id="&#237;&#140;&#168;&#236;&#138;&#164; 233" fill-rule="evenodd" clip-rule="evenodd" d="M19.6651 16.835L18.7371 18.781L22.0281 17.935L19.6651 16.835Z" fill="white"/>
</g>
</mask>
<g mask="url(#mask88_999_13289)">
<g id="&#234;&#183;&#184;&#235;&#163;&#185; 5512">
<path id="&#237;&#140;&#168;&#236;&#138;&#164; 232" d="M18.2842 16.384H22.4782V19.233H18.2842V16.384Z" fill="#383838"/>
</g>
</g>
</g>
<g id="Clip path group_90">
<mask id="mask89_999_13289" style="mask-type:luminance" maskUnits="userSpaceOnUse" x="18" y="0" width="12" height="9">
<g id="clip-path-90">
<path id="&#237;&#140;&#168;&#236;&#138;&#164; 235" fill-rule="evenodd" clip-rule="evenodd" d="M29.791 0L18.313 8.71399L20.254 3.97598L29.791 0Z" fill="white"/>
</g>
</mask>
<g mask="url(#mask89_999_13289)">
<g id="&#234;&#183;&#184;&#235;&#163;&#185; 5513">
<path id="&#237;&#140;&#168;&#236;&#138;&#164; 234" d="M17.8621 9.16409H30.243V-0.450928H17.8621V9.16409Z" fill="#E78E34"/>
</g>
</g>
</g>
<g id="Clip path group_91">
<mask id="mask90_999_13289" style="mask-type:luminance" maskUnits="userSpaceOnUse" x="18" y="0" width="14" height="15">
<g id="clip-path-91">
<path id="&#237;&#140;&#168;&#236;&#138;&#164; 237" fill-rule="evenodd" clip-rule="evenodd" d="M29.7919 0L31.311 4.65298L30.467 9.72897L31.057 10.067L30.213 10.829L30.888 11.421L29.9599 12.267L30.55 12.775L29.2 14.467L22.871 12.521C21.285 11.3347 19.7638 10.0642 18.314 8.715C18.37 8.657 22.1959 5.752 29.7919 0Z" fill="white"/>
</g>
</mask>
<g mask="url(#mask90_999_13289)">
<g id="&#234;&#183;&#184;&#235;&#163;&#185; 5514">
<path id="&#237;&#140;&#168;&#236;&#138;&#164; 236" d="M17.8599 14.9171H31.7599V-0.450928H17.8599V14.9171Z" fill="#8D5A30"/>
</g>
</g>
</g>
</g>
</svg>
