<svg width="16" height="16" viewBox="0 0 16 16" fill="none" xmlns="http://www.w3.org/2000/svg">
<g id="GNBAccountIcon">
<path id="Vector" d="M14.6667 7.39998V4.59998C14.6667 2.26665 13.7333 1.33331 11.4 1.33331H8.60001C6.26668 1.33331 5.33334 2.26665 5.33334 4.59998V5.33331H7.40001C9.73334 5.33331 10.6667 6.26665 10.6667 8.59998V10.6666H11.4C13.7333 10.6666 14.6667 9.73331 14.6667 7.39998Z" stroke="white" stroke-linecap="round" stroke-linejoin="round"/>
<path id="Vector_2" d="M10.6667 11.4V8.59998C10.6667 6.26665 9.73334 5.33331 7.40001 5.33331H4.60001C2.26668 5.33331 1.33334 6.26665 1.33334 8.59998V11.4C1.33334 13.7333 2.26668 14.6666 4.60001 14.6666H7.40001C9.73334 14.6666 10.6667 13.7333 10.6667 11.4Z" stroke="white" stroke-linecap="round" stroke-linejoin="round"/>
</g>
</svg>
