<svg width="17" height="20" viewBox="0 0 17 20" fill="none" xmlns="http://www.w3.org/2000/svg">
<g id="Group 30">
<path id="Rectangle 6" d="M5.8 16.3008L14.5 16.3008C15.3284 16.3008 16 15.6292 16 14.8008L16 5.2221C16 4.82428 15.842 4.44275 15.5607 4.16144L12.8393 1.44012C12.558 1.15882 12.1765 1.00078 11.7787 1.00078L5.8 1.00078C4.97158 1.00078 4.3 1.67235 4.3 2.50078L4.3 14.8008C4.3 15.6292 4.97157 16.3008 5.8 16.3008Z" stroke="white" stroke-width="1.5"/>
<path id="Rectangle 5" d="M16 5.5L13 5.5C12.1716 5.5 11.5 4.82843 11.5 4L11.5 1" stroke="white" stroke-width="1.5"/>
<path id="Rectangle 4" d="M12.3999 19L4.59991 19C2.94305 19 1.5999 17.6569 1.5999 16L1.5999 4.6" stroke="white" stroke-width="1.5" stroke-linecap="round"/>
</g>
</svg>
