<svg width="33" height="30" viewBox="0 0 33 30" fill="none" xmlns="http://www.w3.org/2000/svg">
<g id="Symbol" clip-path="url(#clip0_938_2116)">
<path id="Vector" d="M12.003 5.75724L19.3996 15L12.003 24.2428L4.60639 15L12.003 5.75724ZM12.003 0L0 15L12.003 30L24.006 15L12.003 0Z" fill="#3183FF"/>
<path id="Vector_2" d="M20.997 5.75724L28.3936 15L20.997 24.2428L13.6004 15L20.997 5.75724ZM20.997 0L8.99701 15L21 30L33.003 15L20.997 0Z" fill="#3183FF"/>
<path id="Vector_3" d="M17.8351 13.049L20.1398 10.1688L18.8032 8.49951L16.4985 11.3796L17.8351 13.049Z" fill="#2562BF"/>
<path id="Vector_4" d="M16.4985 24.3776L17.7932 25.996L20.0949 23.1189L18.8032 21.5005L16.4985 24.3776Z" fill="#2562BF"/>
</g>
<defs>
<clipPath id="clip0_938_2116">
<rect width="33" height="30" fill="white"/>
</clipPath>
</defs>
</svg>
