<svg width="23" height="23" viewBox="0 0 23 23" fill="none" xmlns="http://www.w3.org/2000/svg">
<g id="THANOS-symbol 1" clip-path="url(#clip0_1053_14576)">
<g id="THANOS-symbol">
<g id="symbol">
<path id="&#237;&#140;&#168;&#236;&#138;&#164; 2221" d="M11.3971 0.000244141L5.21381 7.96802L8.30616 15.4841L14.4894 7.51607L11.3971 0.000244141Z" fill="#2470ED"/>
<path id="&#237;&#140;&#168;&#236;&#138;&#164; 2222" d="M11.3002 0.716119L14.0746 7.46001L8.40333 14.768L5.62867 8.02437L11.3002 0.716119ZM11.3971 0.000244141L5.21381 7.96802L8.30616 15.4841L14.4894 7.51636L11.3971 0.000244141Z" fill="#05274C"/>
<path id="&#237;&#140;&#168;&#236;&#138;&#164; 2223" d="M9.49268 6.83038L13.3015 16.1692L21.3567 17.2491L17.5479 7.91023L9.49268 6.83038Z" fill="white"/>
<path id="&#237;&#140;&#168;&#236;&#138;&#164; 2224" d="M10.0642 7.27256L17.2917 8.24172L20.7851 16.8069L13.5576 15.838L10.0642 7.27256ZM9.49268 6.83038L13.3015 16.1692L21.3567 17.2491L17.5479 7.91023L9.49268 6.83038Z" fill="#05274C"/>
<path id="&#237;&#140;&#168;&#236;&#138;&#164; 2225" d="M21.3566 5.74879L11.3646 4.37799L6.40262 10.814L16.3938 12.1859L21.3566 5.74879Z" fill="#85BCFA"/>
<path id="&#237;&#140;&#168;&#236;&#138;&#164; 2226" d="M11.5233 4.76525L20.6879 6.02249L16.2351 11.7975L7.07019 10.5403L11.5233 4.76525ZM11.3646 4.37799L6.40262 10.814L16.3938 12.1859L21.3564 5.74879L11.3646 4.37799Z" fill="#05274C"/>
<path id="&#237;&#140;&#168;&#236;&#138;&#164; 2227" d="M16.3938 12.1836L6.40205 10.814L1.43893 17.2499L11.431 18.6207L16.3938 12.1836Z" fill="#85BCFA"/>
<path id="&#237;&#140;&#168;&#236;&#138;&#164; 2228" d="M6.56046 11.2012L15.7248 12.4588L11.2723 18.2335L2.10766 16.9762L6.56046 11.2012ZM6.40176 10.814L1.43893 17.2499L11.431 18.6207L16.3938 12.1836L6.40176 10.814Z" fill="#05274C"/>
<path id="&#237;&#140;&#168;&#236;&#138;&#164; 2229" d="M14.4897 7.51605L8.30615 15.4838L11.3988 22.9999L17.5818 15.0322L14.4897 7.51605Z" fill="#2470ED"/>
<path id="&#237;&#140;&#168;&#236;&#138;&#164; 2230" d="M14.3925 8.23193L17.1669 14.9758L11.4957 22.2841L8.72102 15.5399L14.3925 8.23193ZM14.4894 7.51605L8.30615 15.4838L11.3985 22.9999L17.5818 15.0322L14.4894 7.51605Z" fill="#05274C"/>
<path id="&#237;&#140;&#168;&#236;&#138;&#164; 2231" d="M1.43634 5.75055L5.24629 15.0891L13.3015 16.169L9.49267 6.8304L1.43634 5.75055Z" fill="white"/>
<path id="&#237;&#140;&#168;&#236;&#138;&#164; 2232" d="M2.00904 6.19272L9.2365 7.1616L12.7299 15.7271L5.50245 14.7582L2.00904 6.19272ZM1.43634 5.75055L5.24629 15.0894L13.3015 16.1693L9.49267 6.8304L1.43634 5.75055Z" fill="#05274C"/>
<path id="&#237;&#140;&#168;&#236;&#138;&#164; 2233" d="M11.3606 11.4635L11.2326 11.1113L11.3893 11.1325L9.71519 7.11071L9.64447 7.20242L9.47456 6.86662L9.45731 6.86432L6.40262 10.8157L11.3606 11.4635Z" fill="#85BCFA"/>
<path id="&#237;&#140;&#168;&#236;&#138;&#164; 2234" d="M9.64418 7.20239L9.49238 6.83036L9.47513 6.82806L6.40262 10.8143L11.3979 11.4997L11.2392 11.1124L7.07048 10.5403L9.64418 7.20239Z" fill="#05274C"/>
</g>
</g>
</g>
<defs>
<clipPath id="clip0_1053_14576">
<rect width="23" height="23" fill="white"/>
</clipPath>
</defs>
</svg>
