<svg width="170" height="18" viewBox="0 0 170 18" fill="none" xmlns="http://www.w3.org/2000/svg">
<g id="Tokamak Rollup Hub">
<path id="Vector" d="M163.197 12.6576V13.8283H161.002V0H163.307V4.73746C163.465 4.50577 163.66 4.31066 163.892 4.15213C164.136 3.99361 164.38 3.87167 164.624 3.78631C164.88 3.68875 165.13 3.62168 165.373 3.5851C165.63 3.54852 165.861 3.53023 166.069 3.53023C166.715 3.53023 167.282 3.63388 167.77 3.84118C168.27 4.03629 168.684 4.32285 169.013 4.70087C169.343 5.0789 169.587 5.53008 169.745 6.05443C169.916 6.57878 170.001 7.17021 170.001 7.82869V9.60295C170.001 10.2858 169.904 10.9016 169.709 11.4504C169.513 11.9869 169.239 12.4442 168.885 12.8222C168.532 13.1881 168.105 13.4685 167.605 13.6636C167.117 13.8709 166.568 13.9746 165.959 13.9746C165.288 13.9746 164.727 13.8526 164.276 13.6088C163.825 13.3649 163.483 13.0478 163.252 12.6576H163.197ZM167.715 8.19452C167.715 7.34092 167.55 6.68244 167.221 6.21906C166.892 5.74348 166.355 5.50569 165.611 5.50569C164.843 5.50569 164.258 5.73129 163.855 6.18247C163.465 6.62146 163.27 7.1885 163.27 7.88357V10.0237C163.27 10.2553 163.331 10.4931 163.453 10.737C163.575 10.9687 163.739 11.1821 163.947 11.3772C164.154 11.5601 164.404 11.7126 164.697 11.8345C164.989 11.9564 165.312 12.0174 165.666 12.0174C166.337 12.0174 166.843 11.7857 167.184 11.3223C167.538 10.8468 167.715 10.1883 167.715 9.34687V8.19452Z" fill="white"/>
<path id="Vector_2" d="M153.646 13.9929C152.585 13.9929 151.737 13.6819 151.103 13.06C150.469 12.4259 150.152 11.493 150.152 10.2614V3.74969H152.457V9.76755C152.457 10.2065 152.505 10.5724 152.603 10.865C152.701 11.1455 152.835 11.3711 153.005 11.5418C153.176 11.7003 153.377 11.8162 153.609 11.8893C153.841 11.9503 154.091 11.9808 154.359 11.9808C154.591 11.9808 154.828 11.9442 155.072 11.8711C155.328 11.7979 155.56 11.6699 155.767 11.4869C155.975 11.304 156.145 11.0601 156.28 10.7553C156.426 10.4504 156.499 10.0724 156.499 9.62122V3.74969H158.804V13.8282H156.609V12.621H156.572C156.426 12.8649 156.243 13.0722 156.023 13.2429C155.804 13.4136 155.56 13.5539 155.292 13.6636C155.036 13.7734 154.761 13.8526 154.469 13.9014C154.188 13.9624 153.914 13.9929 153.646 13.9929Z" fill="white"/>
<path id="Vector_3" d="M145.601 7.92015H140.132V13.8283H137.791V0.640198H140.132V5.98127H145.601V0.640198H147.943V13.8283H145.601V7.92015Z" fill="white"/>
<path id="Vector_4" d="M127.926 13.9746C127.317 13.9746 126.792 13.8649 126.353 13.6454C125.914 13.4381 125.561 13.1576 125.292 12.804V17.7426H122.988V3.74974H125.201V4.84722C125.372 4.59114 125.573 4.37774 125.805 4.20702C126.036 4.0363 126.274 3.90217 126.518 3.80461C126.774 3.70706 127.03 3.63999 127.286 3.60341C127.554 3.55463 127.804 3.53024 128.036 3.53024C128.695 3.53024 129.268 3.63389 129.756 3.8412C130.255 4.0485 130.67 4.34116 130.999 4.71918C131.329 5.08501 131.572 5.53619 131.731 6.07274C131.902 6.59709 131.987 7.18242 131.987 7.82871V9.60297C131.987 10.2858 131.889 10.8956 131.694 11.4321C131.511 11.9687 131.243 12.4259 130.89 12.804C130.536 13.182 130.109 13.4685 129.609 13.6637C129.109 13.871 128.548 13.9746 127.926 13.9746ZM129.701 8.19454C129.701 7.34094 129.536 6.68245 129.207 6.21907C128.878 5.7435 128.341 5.50571 127.597 5.50571C126.829 5.50571 126.244 5.7313 125.841 6.18249C125.451 6.62148 125.256 7.18851 125.256 7.88358V10.0237C125.256 10.2554 125.317 10.4931 125.439 10.737C125.561 10.9687 125.725 11.1821 125.933 11.3772C126.14 11.5601 126.39 11.7126 126.683 11.8345C126.975 11.9565 127.298 12.0174 127.652 12.0174C128.323 12.0174 128.829 11.7857 129.17 11.3224C129.524 10.8468 129.701 10.1883 129.701 9.34689V8.19454Z" fill="white"/>
<path id="Vector_5" d="M115.632 13.9929C114.571 13.9929 113.723 13.6819 113.089 13.06C112.455 12.4259 112.138 11.493 112.138 10.2614V3.74969H114.443V9.76755C114.443 10.2065 114.492 10.5724 114.589 10.865C114.687 11.1455 114.821 11.3711 114.992 11.5418C115.162 11.7003 115.364 11.8162 115.595 11.8893C115.827 11.9503 116.077 11.9808 116.345 11.9808C116.577 11.9808 116.815 11.9442 117.059 11.8711C117.315 11.7979 117.546 11.6699 117.754 11.4869C117.961 11.304 118.132 11.0601 118.266 10.7553C118.412 10.4504 118.485 10.0724 118.485 9.62122V3.74969H120.79V13.8282H118.595V12.621H118.559C118.412 12.8649 118.229 13.0722 118.01 13.2429C117.79 13.4136 117.546 13.5539 117.278 13.6636C117.022 13.7734 116.748 13.8526 116.455 13.9014C116.175 13.9624 115.9 13.9929 115.632 13.9929Z" fill="white"/>
<path id="Vector_6" d="M107.723 0H110.028V13.8283H107.723V0Z" fill="white"/>
<path id="Vector_7" d="M103.217 0H105.521V13.8283H103.217V0Z" fill="white"/>
<path id="Vector_8" d="M96.8259 11.9626C97.1673 11.9626 97.4844 11.9138 97.777 11.8162C98.0697 11.7187 98.3197 11.5662 98.527 11.3589C98.7465 11.1516 98.9172 10.8773 99.0391 10.5358C99.1611 10.1944 99.222 9.78588 99.222 9.31031V8.19453C99.222 7.23119 99.0025 6.54831 98.5635 6.1459C98.1367 5.74349 97.5575 5.54229 96.8259 5.54229C96.0942 5.54229 95.5089 5.74349 95.0699 6.1459C94.6431 6.54831 94.4297 7.23119 94.4297 8.19453V9.31031C94.4297 9.78588 94.4907 10.1944 94.6126 10.5358C94.7345 10.8773 94.8992 11.1516 95.1065 11.3589C95.326 11.5662 95.5821 11.7187 95.8747 11.8162C96.1674 11.9138 96.4844 11.9626 96.8259 11.9626ZM96.8259 13.9746C96.1064 13.9746 95.454 13.8709 94.8687 13.6636C94.2956 13.4563 93.8017 13.1576 93.3871 12.7674C92.9847 12.3772 92.6676 11.8955 92.4359 11.3224C92.2164 10.737 92.1067 10.0785 92.1067 9.34689V8.15795C92.1067 7.4141 92.2164 6.75562 92.4359 6.18249C92.6676 5.60936 92.9847 5.12769 93.3871 4.73747C93.8017 4.34726 94.2956 4.0485 94.8687 3.84119C95.454 3.63389 96.1064 3.53024 96.8259 3.53024C97.5331 3.53024 98.1794 3.63389 98.7647 3.84119C99.3501 4.0485 99.8439 4.34726 100.246 4.73747C100.661 5.12769 100.978 5.60936 101.197 6.18249C101.429 6.75562 101.545 7.4141 101.545 8.15795V9.34689C101.545 10.0785 101.429 10.737 101.197 11.3224C100.978 11.8955 100.661 12.3772 100.246 12.7674C99.8439 13.1576 99.3501 13.4563 98.7647 13.6636C98.1794 13.8709 97.5331 13.9746 96.8259 13.9746Z" fill="white"/>
<path id="Vector_9" d="M86.2507 8.54206H83.5619V13.8283H81.2206V0.640198H86.2141C86.897 0.640198 87.5006 0.731655 88.025 0.914569C88.5615 1.09748 89.0066 1.34746 89.3603 1.66451C89.7261 1.98156 90.0005 2.36568 90.1834 2.81687C90.3785 3.25586 90.476 3.73753 90.476 4.26188V4.93866C90.476 5.63373 90.3053 6.26174 89.9639 6.82267C89.6224 7.37141 89.1103 7.79821 88.4274 8.10307C88.8664 9.06641 89.2932 10.0237 89.7078 10.9748C90.1346 11.9138 90.5675 12.8649 91.0065 13.8283H88.464L86.2507 8.54206ZM83.5619 2.59737V6.58488H85.7203C86.6227 6.58488 87.2507 6.42636 87.6043 6.10931C87.9701 5.79226 88.153 5.38375 88.153 4.88379V4.33505C88.153 3.82289 87.9823 3.40829 87.6409 3.09124C87.2994 2.76199 86.7263 2.59737 85.9215 2.59737H83.5619Z" fill="white"/>
<path id="Vector_10" d="M72.0202 7.92015L76.0992 13.8283H73.1543L70.4106 9.54808L69.2582 10.8285V13.8283H66.9535V0H69.2582V8.01161L73.0262 3.74972H75.9345L72.0202 7.92015Z" fill="white"/>
<path id="Vector_11" d="M59.9252 13.9746C58.8399 13.9746 57.9985 13.7307 57.401 13.2429C56.8035 12.743 56.5047 12.0479 56.5047 11.1577V10.5724C56.5047 10.1578 56.5657 9.77979 56.6876 9.43835C56.8218 9.08471 57.0352 8.77986 57.3278 8.52378C57.6327 8.2677 58.029 8.0665 58.5168 7.92016C59.0045 7.77383 59.602 7.70067 60.3093 7.70067H62.614V7.31655C62.614 6.69464 62.4677 6.24956 62.175 5.98128C61.8946 5.70082 61.4434 5.56058 60.8215 5.56058C59.7728 5.56058 58.8216 5.89592 57.968 6.56661L56.8339 4.8838C57.3461 4.53017 57.9253 4.21922 58.5716 3.95094C59.2179 3.67048 59.974 3.53024 60.8398 3.53024C61.4251 3.53024 61.9677 3.60341 62.4677 3.74974C62.9676 3.89607 63.3944 4.10947 63.7481 4.38994C64.1139 4.65821 64.3944 4.99355 64.5895 5.39596C64.7968 5.78617 64.9004 6.23736 64.9004 6.74952V13.8283H62.8335L62.7969 12.5845C62.6994 12.804 62.5408 13.0052 62.3214 13.1881C62.114 13.3588 61.8763 13.499 61.608 13.6088C61.3397 13.7307 61.0592 13.8222 60.7666 13.8831C60.4739 13.9441 60.1935 13.9746 59.9252 13.9746ZM62.614 9.49322H60.3642C59.7545 9.49322 59.3277 9.60907 59.0838 9.84076C58.8521 10.0724 58.7362 10.3834 58.7362 10.7736V10.9931C58.7362 11.3224 58.8521 11.5784 59.0838 11.7613C59.3155 11.9443 59.6569 12.0357 60.1081 12.0357C61.0471 12.0357 61.7421 11.8101 62.1933 11.3589C62.4006 11.1516 62.5226 10.9321 62.5591 10.7004C62.5957 10.4566 62.614 10.1456 62.614 9.76759V9.49322Z" fill="white"/>
<path id="Vector_12" d="M51.4414 3.53024C51.9048 3.53024 52.3437 3.6095 52.7584 3.76803C53.1852 3.92655 53.5571 4.16434 53.8741 4.48139C54.1912 4.79844 54.4412 5.19476 54.6241 5.67033C54.8192 6.14591 54.9167 6.70074 54.9167 7.33484V13.8283H52.612V7.81042C52.612 7.35923 52.5632 6.98731 52.4657 6.69465C52.3681 6.40198 52.234 6.17639 52.0633 6.01787C51.8926 5.84715 51.6975 5.7313 51.478 5.67033C51.2585 5.60936 51.0268 5.57887 50.7829 5.57887C50.5634 5.57887 50.3378 5.61546 50.1061 5.68862C49.8866 5.74959 49.6915 5.86544 49.5208 6.03616C49.3501 6.19468 49.2098 6.41418 49.1001 6.69465C48.9903 6.97511 48.9355 7.32265 48.9355 7.73725V13.8283H46.6307V7.77384C46.6307 7.34704 46.582 6.99341 46.4844 6.71294C46.3869 6.43247 46.2527 6.20688 46.082 6.03616C45.9235 5.86544 45.7345 5.74959 45.515 5.68862C45.2955 5.61546 45.0577 5.57887 44.8016 5.57887C44.2529 5.57887 43.8078 5.74959 43.4663 6.09103C43.1249 6.43247 42.9542 6.95073 42.9542 7.6458V13.8283H40.6495V3.74974H42.8261V5.03013H42.8627C43.1066 4.56675 43.4602 4.20093 43.9236 3.93265C44.3992 3.66438 44.9662 3.53024 45.6247 3.53024C46.2466 3.53024 46.8015 3.67048 47.2892 3.95094C47.7892 4.23141 48.1306 4.60334 48.3136 5.06672C48.6672 4.55456 49.0818 4.17044 49.5574 3.91436C50.0451 3.65828 50.6731 3.53024 51.4414 3.53024Z" fill="white"/>
<path id="Vector_13" d="M33.6214 13.9746C32.5361 13.9746 31.6947 13.7307 31.0972 13.2429C30.4997 12.743 30.2009 12.0479 30.2009 11.1577V10.5724C30.2009 10.1578 30.2619 9.77979 30.3838 9.43835C30.518 9.08471 30.7314 8.77986 31.024 8.52378C31.3289 8.2677 31.7252 8.0665 32.213 7.92016C32.7007 7.77383 33.2983 7.70067 34.0055 7.70067H36.3102V7.31655C36.3102 6.69464 36.1639 6.24956 35.8712 5.98128C35.5908 5.70082 35.1396 5.56058 34.5177 5.56058C33.469 5.56058 32.5178 5.89592 31.6642 6.56661L30.5302 4.8838C31.0423 4.53017 31.6216 4.21922 32.2679 3.95094C32.9141 3.67048 33.6702 3.53024 34.536 3.53024C35.1213 3.53024 35.6639 3.60341 36.1639 3.74974C36.6639 3.89607 37.0907 4.10947 37.4443 4.38994C37.8101 4.65821 38.0906 4.99355 38.2857 5.39596C38.493 5.78617 38.5967 6.23736 38.5967 6.74952V13.8283H36.5297L36.4931 12.5845C36.3956 12.804 36.2371 13.0052 36.0176 13.1881C35.8103 13.3588 35.5725 13.499 35.3042 13.6088C35.0359 13.7307 34.7555 13.8222 34.4628 13.8831C34.1702 13.9441 33.8897 13.9746 33.6214 13.9746ZM36.3102 9.49322H34.0604C33.4507 9.49322 33.0239 9.60907 32.78 9.84076C32.5483 10.0724 32.4325 10.3834 32.4325 10.7736V10.9931C32.4325 11.3224 32.5483 11.5784 32.78 11.7613C33.0117 11.9443 33.3531 12.0357 33.8043 12.0357C34.7433 12.0357 35.4383 11.8101 35.8895 11.3589C36.0968 11.1516 36.2188 10.9321 36.2554 10.7004C36.2919 10.4566 36.3102 10.1456 36.3102 9.76759V9.49322Z" fill="white"/>
<path id="Vector_14" d="M25.6468 7.92015L29.7258 13.8283H26.7809L24.0372 9.54808L22.8848 10.8285V13.8283H20.5801V0H22.8848V8.01161L26.6529 3.74972H29.5612L25.6468 7.92015Z" fill="white"/>
<path id="Vector_15" d="M14.189 11.9626C14.5305 11.9626 14.8475 11.9138 15.1402 11.8162C15.4328 11.7187 15.6828 11.5662 15.8901 11.3589C16.1096 11.1516 16.2803 10.8773 16.4023 10.5358C16.5242 10.1944 16.5852 9.78588 16.5852 9.31031V8.19453C16.5852 7.23119 16.3657 6.54831 15.9267 6.1459C15.4999 5.74349 14.9207 5.54229 14.189 5.54229C13.4574 5.54229 12.872 5.74349 12.433 6.1459C12.0062 6.54831 11.7929 7.23119 11.7929 8.19453V9.31031C11.7929 9.78588 11.8538 10.1944 11.9758 10.5358C12.0977 10.8773 12.2623 11.1516 12.4696 11.3589C12.6891 11.5662 12.9452 11.7187 13.2379 11.8162C13.5305 11.9138 13.8476 11.9626 14.189 11.9626ZM14.189 13.9746C13.4696 13.9746 12.8172 13.8709 12.2318 13.6636C11.6587 13.4563 11.1648 13.1576 10.7502 12.7674C10.3478 12.3772 10.0308 11.8955 9.79909 11.3224C9.5796 10.737 9.46985 10.0785 9.46985 9.34689V8.15795C9.46985 7.4141 9.5796 6.75562 9.79909 6.18249C10.0308 5.60936 10.3478 5.12769 10.7502 4.73747C11.1648 4.34726 11.6587 4.0485 12.2318 3.84119C12.8172 3.63389 13.4696 3.53024 14.189 3.53024C14.8963 3.53024 15.5426 3.63389 16.1279 3.84119C16.7132 4.0485 17.2071 4.34726 17.6095 4.73747C18.0241 5.12769 18.3412 5.60936 18.5607 6.18249C18.7923 6.75562 18.9082 7.4141 18.9082 8.15795V9.34689C18.9082 10.0785 18.7923 10.737 18.5607 11.3224C18.3412 11.8955 18.0241 12.3772 17.6095 12.7674C17.2071 13.1576 16.7132 13.4563 16.1279 13.6636C15.5426 13.8709 14.8963 13.9746 14.189 13.9746Z" fill="white"/>
<path id="Vector_16" d="M10.0785 0.640198V2.61566H6.21906V13.8283H3.87777V2.61566H0V0.640198H10.0785Z" fill="white"/>
</g>
</svg>
